<?xml version="1.0" encoding="utf-8"?>
<!-- Generator: Adobe Illustrator 24.0.2, SVG Export Plug-In . SVG Version: 6.00 Build 0)  -->
<svg version="1.1" id="Layer_1" xmlns="http://www.w3.org/2000/svg" xmlns:xlink="http://www.w3.org/1999/xlink" x="0px" y="0px"
	 viewBox="0 0 100 100" style="enable-background:new 0 0 100 100;" xml:space="preserve">
<style type="text/css">
	.st0{fill:none;stroke:#3872C4;stroke-width:3;stroke-miterlimit:10;}
</style>
<path class="st0" d="M92.8,46.4c0-3.8-1.4-5.5-5.3-5.4c-7.6,0.2-15.3-0.2-22.9,0.1c-4.7,0.2-6.2-1.8-6-6.2c0.2-5.9,0.1-11.8,0-17.7
	C58.5,4,59.7,5.8,46.2,5.6C42.5,5.5,41,7,41,10.7c0.1,6.4,0,12.7,0,19.1c0,12.6,1.2,11.1-11.8,11.3c-3.8,0.1-5.1-1.7-5.1-5.2
	c0-6.2,0-12.4,0-18.6c0-13.5,0.6-11.4-11.9-11.7c-3.7-0.1-5.1,1.1-5.1,4.9c0.1,26.3,0.1,52.5,0,78.8c0,4,1.5,5.3,5.3,5.2
	c12.4-0.2,24.8-0.1,37.3-0.1s24.8-0.1,37.3,0.1c4.1,0.1,5.7-1.4,5.7-5.6C92.6,74.7,92.7,60.6,92.8,46.4z M66.5,76.5
	c-7,0-8-1.2-8-9.1c0-7.4,0.9-8.3,8.7-8.3c7.5,0,8.2,0.8,8.2,9.2C75.4,75.4,74.2,76.5,66.5,76.5z"/>
</svg>
