<?xml version="1.0" encoding="utf-8"?>
<!-- Generator: Adobe Illustrator 24.0.2, SVG Export Plug-In . SVG Version: 6.00 Build 0)  -->
<svg version="1.1" id="Layer_1" xmlns="http://www.w3.org/2000/svg" xmlns:xlink="http://www.w3.org/1999/xlink" x="0px" y="0px"
	 viewBox="0 0 100 100" style="enable-background:new 0 0 100 100;" xml:space="preserve">
<style type="text/css">
	.st0{enable-background:new    ;}
	.st1{fill:#A9B5AF;}
	.st2{fill:#3872C4;}
</style>
<g>
	<g class="st0">
		<path class="st1" d="M40,55.6h-2.6v-1.8h7.4v1.8h-2.6v7.8H40V55.6z"/>
		<path class="st1" d="M52.5,63.1c-0.4,0.2-1.3,0.4-2.4,0.4c-3.3,0-5-2.1-5-4.8c0-3.3,2.3-5.1,5.2-5.1c1.1,0,2,0.2,2.4,0.4l-0.5,1.7
			c-0.4-0.2-1-0.4-1.8-0.4c-1.7,0-3,1-3,3.2c0,1.9,1.1,3.1,3.1,3.1c0.7,0,1.4-0.1,1.8-0.3L52.5,63.1z"/>
		<path class="st1" d="M54,54c0.7-0.1,1.6-0.2,2.9-0.2c1.3,0,2.3,0.3,2.9,0.8c0.6,0.5,1,1.3,1,2.2c0,0.9-0.3,1.7-0.9,2.3
			c-0.7,0.7-1.8,1-3.1,1c-0.3,0-0.5,0-0.7-0.1v3.4H54V54z M56.1,58.3c0.2,0,0.4,0.1,0.7,0.1c1.2,0,1.9-0.6,1.9-1.5
			c0-0.9-0.6-1.4-1.7-1.4c-0.4,0-0.7,0-0.9,0.1V58.3z"/>
	</g>
	<path class="st1" d="M49.9,39.2c-3,0-5.5,2.6-5.5,5.5c0,3,2.5,5.4,5.4,5.4c3,0,5.4-2.4,5.4-5.4C55.3,41.6,52.9,39.2,49.9,39.2z
		 M49.9,47.1c-1.4,0-2.5-1.1-2.5-2.5s1.1-2.5,2.4-2.5c1.3,0,2.5,1.2,2.5,2.5C52.3,46,51.2,47,49.9,47.1z"/>
	<path class="st1" d="M43,37.9c-0.7,0.7-1.6,0.6-2.2,0c-0.6-0.6-0.5-1.4,0.2-2.1c2.2-2.2,5.4-3.5,9.2-3.6c2.8,0.1,5.7,1.2,8.1,3.6
		c0.7,0.7,0.8,1.5,0.1,2.2c-0.6,0.6-1.4,0.7-2.1,0C53.1,34.5,46.8,34.1,43,37.9z"/>
	<path class="st1" d="M63.6,32.7C63,33,62.5,32.9,62,32.4c-1-1-2.1-1.9-3.3-2.6c-6.6-3.9-14.7-3.2-20.4,2c-0.2,0.2-0.4,0.4-0.6,0.6
		c-0.7,0.6-1.5,0.6-2.1,0c-0.6-0.6-0.5-1.4,0.1-2.1c0.3-0.4,0.7-0.7,1.1-1c7.8-6.7,19.7-6.3,27,0.9c0.3,0.3,0.6,0.7,0.7,1.2
		C64.5,32,64.2,32.5,63.6,32.7z"/>
	<path class="st1" d="M32.6,26.4c-1.2,1.1-1.9,1.2-2.6,0.4c-0.7-0.7-0.5-1.5,0.7-2.5c5.4-5,11.8-7.4,19.1-7.6c7.5,0.1,14,2.8,19.5,8
		c0.9,0.8,1,1.6,0.3,2.3c-0.7,0.7-1.5,0.6-2.4-0.2c-5-4.7-10.9-7.2-17.7-7.1C43.1,19.7,37.4,22,32.6,26.4z"/>
	<path class="st2" d="M91,86.7c0-1-0.7-1.7-1.7-1.7c-3.5,0-7,0-10.5,0c-0.9,0-1.4,0.5-1.4,1.4c0,0.8,0,1.6,0,2.5
		c0,0.5-0.1,0.7-0.6,0.7c-6.6,0-13.3,0-19.9,0c-0.5,0-0.6-0.1-0.6-0.6c0-0.7,0-1.4,0-2.1c0-1.5-0.4-1.9-1.9-1.9c-0.8,0-1.5,0-2.3,0
		c-0.6,0-0.8-0.1-0.8-0.8c0-3,0-5.9,0-8.9c0-1.2,0-1.2,1.2-1.2c10.7,0,21.4,0,32.1,0c2.4,0,4.3-1.3,5-3.5c0.3-0.9,0.2-1.7,0.2-2.6
		c0-17.5,0-35,0-52.4c0-3.3-2-5.4-5.3-5.4c-12.5,0-24.9,0-37.4,0c-0.7,0-1.2-0.2-1.7-0.6c-2.7-2-5.5-3.9-8.2-5.8
		c-0.6-0.4-1.2-0.6-1.9-0.6c-6.7,0-13.4,0-20.1,0c-0.5,0-1,0-1.5,0.1c-2.4,0.6-3.8,2.6-3.8,5.2c0,10,0,20.1,0,30.1
		c0,10.1,0,20.2,0,30.2c0,2.6,1.5,4.6,3.9,5.1c0.8,0.2,1.7,0.1,2.5,0.1c10.4,0,20.8,0,31.3,0c0.5,0,0.9-0.1,0.9,0.7
		c0,3.2,0,6.4,0,9.5c0,0.6-0.2,0.7-0.7,0.7c-0.9,0-1.8,0-2.7,0c-1.4,0-1.8,0.4-1.8,1.9c0,0.7,0,1.4,0,2.1c0,0.5-0.1,0.6-0.6,0.6
		c-6.6,0-13.2,0-19.7,0c-0.5,0-0.6-0.2-0.6-0.7c0-0.8,0-1.5,0-2.3c0-1.2-0.5-1.6-1.6-1.6c-3.3,0-6.7,0-10,0c-1.1,0-1.5,0.5-1.5,1.5
		c0,3,0,6,0,9.1c0,0.9,0.5,1.4,1.4,1.4c3.5,0,7,0,10.5,0c0.9,0,1.4-0.5,1.4-1.4c0-0.8,0-1.6,0-2.5c0-0.6,0.2-0.7,0.7-0.7
		c1.8,0,3.5,0,5.3,0c4.7,0,9.4,0,14.2,0c0.7,0,0.9,0.2,0.8,0.8c-0.1,0.7,0,1.4,0,2.2c0,1.1,0.5,1.5,1.6,1.6c3.4,0,6.8,0,10.2,0
		c1.1,0,1.5-0.5,1.6-1.6c0-0.8,0-1.6,0-2.4c0-0.4,0.1-0.6,0.6-0.6c6.6,0,13.3,0,19.9,0c0.5,0,0.6,0.1,0.6,0.6c0,0.8,0,1.6,0,2.5
		c0,1,0.5,1.5,1.5,1.5c3.4,0,6.9,0,10.3,0c1,0,1.5-0.5,1.5-1.5C91,92.5,91,89.6,91,86.7z M19.4,93.4c0,0.5-0.2,0.6-0.7,0.6
		c-1,0-2.1,0-3.1,0l0,0c-1.1,0-2.1,0-3.2,0c-0.4,0-0.5-0.1-0.5-0.5c0-1.7,0-3.5,0-5.2c0-0.4,0.1-0.5,0.5-0.5c2.2,0,4.3,0,6.5,0
		c0.4,0,0.5,0.2,0.5,0.6C19.4,90,19.4,91.7,19.4,93.4z M15.5,71.1c-2,0-2.7-0.7-2.7-2.6v-60c0-1.7,0.8-2.5,2.5-2.5
		c6.3,0,12.7,0,19,0c0.7,0,1.3,0.2,1.8,0.6c2.7,2,5.4,3.9,8.1,5.9c0.7,0.5,1.4,0.7,2.3,0.7c12.6,0,25.2,0,37.8,0
		c2,0,2.6,0.6,2.6,2.6c0,17.6,0,35.2,0,52.8c0,1.8-0.7,2.5-2.5,2.5c-11.5,0-23,0-34.6,0l0,0C38.4,71.1,26.9,71.1,15.5,71.1z
		 M53.4,93.3c0,0.6-0.2,0.7-0.7,0.7c-2,0-4.1,0-6.1,0c-0.4,0-0.7-0.1-0.7-0.6c0-1.7,0-3.3,0-5c0-0.5,0.2-0.6,0.7-0.6
		c1.1,0,2.1,0,3.2,0c1,0,2,0,3,0c0.5,0,0.7,0.1,0.6,0.6C53.4,90.1,53.4,91.7,53.4,93.3z M87.8,93.4c0,0.5-0.1,0.7-0.6,0.6
		c-1,0-2.1,0-3.1,0S82,94,81,94c-0.5,0-0.7-0.1-0.7-0.6c0-1.7,0-3.3,0-5c0-0.5,0.1-0.6,0.6-0.6c2.1,0,4.2,0,6.3,0
		c0.5,0,0.6,0.2,0.6,0.7C87.8,90.1,87.8,91.7,87.8,93.4z"/>
	<path class="st1" d="M49.9,39.2c-3,0-5.5,2.6-5.5,5.5c0,3,2.5,5.4,5.4,5.4c3,0,5.4-2.4,5.4-5.4C55.3,41.6,52.9,39.2,49.9,39.2z
		 M49.9,47.1c-1.4,0-2.5-1.1-2.5-2.5s1.1-2.5,2.4-2.5c1.3,0,2.5,1.2,2.5,2.5C52.3,46,51.2,47,49.9,47.1z"/>
	<path class="st1" d="M56.4,37.9c-3.3-3.4-9.6-3.9-13.4,0c-0.7,0.7-1.6,0.6-2.2,0c-0.6-0.6-0.5-1.4,0.2-2.1c2.2-2.2,5.4-3.5,9.2-3.6
		c2.8,0.1,5.7,1.2,8.1,3.6c0.7,0.7,0.8,1.5,0.1,2.2C57.9,38.6,57.1,38.6,56.4,37.9z"/>
	<path class="st1" d="M35.6,32.4c-0.6-0.6-0.5-1.4,0.1-2.1c0.3-0.4,0.7-0.7,1.1-1c7.8-6.7,19.7-6.3,27,0.9c0.3,0.3,0.6,0.7,0.7,1.2
		c0,0.6-0.3,1.1-0.9,1.3C63,33,62.5,32.9,62,32.4c-1-1-2.1-1.9-3.3-2.6c-6.6-3.9-14.7-3.2-20.4,2c-0.2,0.2-0.4,0.4-0.6,0.6
		C37,33,36.2,33,35.6,32.4z"/>
	<path class="st1" d="M69.7,26.9c-0.7,0.7-1.5,0.6-2.4-0.2c-5-4.7-10.9-7.2-17.7-7.1c-6.5,0-12.1,2.3-16.9,6.7
		c-1.2,1.1-1.9,1.2-2.6,0.4c-0.7-0.7-0.5-1.5,0.7-2.5c5.4-5,11.8-7.4,19.1-7.6c7.5,0.1,14,2.8,19.5,8C70.2,25.5,70.3,26.2,69.7,26.9
		z"/>
	<path class="st1" d="M69.7,26.9c-0.7,0.7-1.5,0.6-2.4-0.2c-5-4.7-10.9-7.2-17.7-7.1c-6.5,0-12.1,2.3-16.9,6.7
		c-1.2,1.1-1.9,1.2-2.6,0.4c-0.7-0.7-0.5-1.5,0.7-2.5c5.4-5,11.8-7.4,19.1-7.6c7.5,0.1,14,2.8,19.5,8C70.2,25.5,70.3,26.2,69.7,26.9
		z"/>
	<path class="st1" d="M64.5,31.4c0,0.6-0.3,1.1-0.9,1.3C63,33,62.5,32.9,62,32.4c-1-1-2.1-1.9-3.3-2.6c-6.6-3.9-14.7-3.2-20.4,2
		c-0.2,0.2-0.4,0.4-0.6,0.6c-0.7,0.6-1.5,0.6-2.1,0c-0.6-0.6-0.5-1.4,0.1-2.1c0.3-0.4,0.7-0.7,1.1-1c7.8-6.7,19.7-6.3,27,0.9
		C64.2,30.5,64.5,30.9,64.5,31.4z"/>
	<path class="st1" d="M49.9,39.2c-3,0-5.5,2.6-5.5,5.5c0,3,2.5,5.4,5.4,5.4c3,0,5.4-2.4,5.4-5.4C55.3,41.6,52.9,39.2,49.9,39.2z
		 M49.9,47.1c-1.4,0-2.5-1.1-2.5-2.5s1.1-2.5,2.4-2.5c1.3,0,2.5,1.2,2.5,2.5C52.3,46,51.2,47,49.9,47.1z"/>
	<path class="st1" d="M58.5,38c-0.6,0.6-1.4,0.7-2.1,0c-3.3-3.4-9.6-3.9-13.4,0c-0.7,0.7-1.6,0.6-2.2,0c-0.6-0.6-0.5-1.4,0.2-2.1
		c2.2-2.2,5.4-3.5,9.2-3.6c2.8,0.1,5.7,1.2,8.1,3.6C59.1,36.5,59.1,37.3,58.5,38z"/>
</g>
</svg>
