<?xml version="1.0" encoding="utf-8"?>
<!-- Generator: Adobe Illustrator 24.0.2, SVG Export Plug-In . SVG Version: 6.00 Build 0)  -->
<svg version="1.1" id="Layer_1" xmlns="http://www.w3.org/2000/svg" xmlns:xlink="http://www.w3.org/1999/xlink" x="0px" y="0px"
	 viewBox="0 0 100 100" style="enable-background:new 0 0 100 100;" xml:space="preserve">
<style type="text/css">
	.st0{enable-background:new    ;}
	.st1{fill:#A9B5AF;}
	.st2{fill:#3872C4;}
</style>
<g>
	<g class="st0">
		<path class="st1" d="M40.7,53.7V59c0,1.6,0.6,2.4,1.7,2.4c1.1,0,1.7-0.8,1.7-2.4v-5.3h2.1v5.2c0,2.8-1.4,4.2-3.8,4.2
			c-2.3,0-3.7-1.3-3.7-4.2v-5.1H40.7z"/>
		<path class="st1" d="M47.9,53.8c0.8-0.1,1.8-0.2,2.8-0.2c1.8,0,2.9,0.3,3.8,1c1,0.7,1.6,1.8,1.6,3.5c0,1.8-0.6,3-1.5,3.7
			c-1,0.8-2.5,1.2-4.3,1.2c-1.1,0-1.9-0.1-2.4-0.1V53.8z M50,61.3c0.2,0,0.5,0,0.7,0c1.9,0,3.1-1,3.1-3.2c0-1.9-1.1-2.9-2.9-2.9
			c-0.5,0-0.8,0-0.9,0.1V61.3z"/>
		<path class="st1" d="M57.4,53.8c0.6-0.1,1.5-0.2,2.8-0.2c1.3,0,2.2,0.2,2.8,0.7c0.6,0.5,1,1.2,1,2.1s-0.3,1.7-0.8,2.2
			c-0.7,0.7-1.8,1-3,1c-0.3,0-0.5,0-0.7-0.1v3.3h-2.1V53.8z M59.5,58c0.2,0,0.4,0.1,0.7,0.1c1.1,0,1.8-0.6,1.8-1.5
			c0-0.8-0.6-1.3-1.6-1.3c-0.4,0-0.7,0-0.8,0.1V58z"/>
	</g>
	<path class="st1" d="M49.9,39.6c-2.9,0-5.3,2.5-5.3,5.2c0,2.8,2.4,5.2,5.2,5.2c2.9,0,5.2-2.3,5.2-5.2C55.1,42,52.7,39.6,49.9,39.6z
		 M49.9,47.2c-1.4,0-2.4-1-2.4-2.4c0-1.3,1.1-2.4,2.3-2.4c1.3,0,2.4,1.2,2.4,2.4C52.2,46.1,51.2,47.2,49.9,47.2z"/>
	<path class="st1" d="M43.3,38.4c-0.7,0.7-1.5,0.6-2.1,0c-0.5-0.6-0.5-1.3,0.2-2c2.1-2.1,5.2-3.4,8.8-3.4c2.7,0.1,5.5,1.2,7.8,3.4
		c0.7,0.7,0.7,1.5,0.1,2.1c-0.6,0.6-1.4,0.6-2,0C53,35.1,47,34.7,43.3,38.4z"/>
	<path class="st1" d="M63.1,33.4c-0.5,0.2-1.1,0.2-1.5-0.2c-1-0.9-2-1.8-3.2-2.5c-6.3-3.8-14.1-3-19.6,1.9c-0.2,0.2-0.4,0.4-0.6,0.5
		c-0.7,0.6-1.5,0.6-2,0c-0.6-0.6-0.5-1.3,0.1-2c0.3-0.3,0.7-0.7,1.1-1c7.5-6.5,19-6.1,26,0.9c0.3,0.3,0.6,0.7,0.6,1.2
		C63.9,32.7,63.6,33.1,63.1,33.4z"/>
	<path class="st1" d="M33.3,27.3c-1.1,1-1.9,1.2-2.5,0.4c-0.6-0.7-0.4-1.4,0.7-2.4c5.2-4.8,11.3-7.1,18.4-7.3
		c7.2,0.1,13.5,2.6,18.8,7.7c0.8,0.8,0.9,1.5,0.3,2.2s-1.4,0.6-2.3-0.2c-4.8-4.6-10.5-6.9-17-6.8C43.4,20.9,37.9,23.1,33.3,27.3z"/>
	<path class="st2" d="M89.4,85.2c0-0.9-0.7-1.7-1.7-1.7c-3.4,0-6.7,0-10.1,0c-0.9,0-1.3,0.5-1.3,1.4c0,0.8,0,1.6,0,2.4
		c0,0.5-0.1,0.6-0.6,0.6c-6.4,0-12.8,0-19.1,0c-0.4,0-0.6-0.1-0.6-0.6c0-0.7,0-1.3,0-2c0-1.4-0.4-1.8-1.8-1.8c-0.7,0-1.5,0-2.2,0
		c-0.6,0-0.8-0.1-0.8-0.7c0-2.8,0-5.7,0-8.5c0-1.2,0-1.2,1.2-1.2c10.3,0,20.6,0,30.9,0c2.3,0,4.1-1.3,4.8-3.3
		c0.3-0.8,0.2-1.7,0.2-2.5c0-16.8,0-33.6,0-50.4c0-3.2-2-5.2-5.1-5.2c-12,0-24,0-35.9,0c-0.6,0-1.1-0.2-1.7-0.5
		c-2.6-1.9-5.3-3.7-7.9-5.6C37.1,5.2,36.6,5,35.9,5C29.4,5,23,5,16.5,5c-0.5,0-1,0-1.4,0.1c-2.3,0.6-3.7,2.5-3.7,5
		c0,9.6,0,19.3,0,28.9c0,9.7,0,19.4,0,29c0,2.5,1.4,4.4,3.7,4.9c0.8,0.2,1.6,0.1,2.4,0.1c10,0,20,0,30,0c0.5,0,0.9-0.1,0.8,0.7
		c0,3.1,0,6.1,0,9.2c0,0.5-0.2,0.7-0.7,0.6c-0.9,0-1.8,0-2.6,0c-1.3,0-1.8,0.4-1.8,1.8c0,0.7,0,1.3,0,2c0,0.4-0.1,0.6-0.6,0.6
		c-6.3,0-12.6,0-19,0c-0.5,0-0.6-0.2-0.6-0.6c0-0.7,0-1.5,0-2.2c0-1.1-0.4-1.6-1.5-1.6c-3.2,0-6.4,0-9.6,0c-1,0-1.5,0.4-1.5,1.4
		c0,2.9,0,5.8,0,8.7c0,0.9,0.5,1.4,1.3,1.4c3.4,0,6.7,0,10.1,0c0.9,0,1.3-0.5,1.4-1.4c0-0.8,0-1.6,0-2.4c0-0.5,0.2-0.7,0.7-0.6
		c1.7,0,3.4,0,5.1,0c4.5,0,9.1,0,13.6,0c0.6,0,0.9,0.1,0.8,0.8c-0.1,0.7,0,1.4,0,2.1c0,1,0.5,1.5,1.5,1.5c3.3,0,6.5,0,9.8,0
		c1,0,1.5-0.5,1.5-1.5c0-0.8,0-1.5,0-2.3c0-0.4,0.1-0.6,0.5-0.6c6.4,0,12.8,0,19.1,0c0.4,0,0.6,0.1,0.6,0.6c0,0.8,0,1.6,0,2.4
		c0,1,0.5,1.4,1.5,1.4c3.3,0,6.6,0,9.9,0c1,0,1.4-0.5,1.4-1.5C89.4,90.8,89.4,88,89.4,85.2z M20.6,91.7c0,0.5-0.2,0.6-0.6,0.6
		c-1,0-2,0-3,0l0,0c-1,0-2.1,0-3.1,0c-0.4,0-0.5-0.1-0.5-0.5c0-1.7,0-3.3,0-5c0-0.4,0.1-0.5,0.5-0.5c2.1,0,4.2,0,6.2,0
		c0.4,0,0.5,0.2,0.5,0.5C20.6,88.5,20.6,90.1,20.6,91.7z M16.8,70.3c-1.9,0-2.6-0.7-2.6-2.5V10.1c0-1.6,0.7-2.4,2.4-2.4
		c6.1,0,12.2,0,18.3,0c0.7,0,1.2,0.2,1.7,0.6c2.6,1.9,5.2,3.7,7.8,5.7c0.7,0.5,1.3,0.7,2.2,0.7c12.1,0,24.2,0,36.3,0
		c1.9,0,2.5,0.6,2.5,2.5c0,16.9,0,33.8,0,50.7c0,1.8-0.7,2.4-2.4,2.4c-11.1,0-22.1,0-33.2,0l0,0C38.8,70.3,27.8,70.3,16.8,70.3z
		 M53.3,91.6c0,0.5-0.2,0.6-0.7,0.6c-2,0-3.9,0-5.9,0c-0.4,0-0.7-0.1-0.6-0.6c0-1.6,0-3.2,0-4.8c0-0.5,0.2-0.6,0.6-0.6
		c1,0,2.1,0,3.1,0s1.9,0,2.9,0c0.5,0,0.6,0.1,0.6,0.6C53.2,88.5,53.2,90.1,53.3,91.6z M86.3,91.7c0,0.5-0.1,0.6-0.6,0.6
		c-1,0-2,0-3,0s-2,0-3,0c-0.4,0-0.7-0.1-0.6-0.6c0-1.6,0-3.2,0-4.8c0-0.4,0.1-0.6,0.6-0.6c2,0,4,0,6.1,0c0.5,0,0.6,0.2,0.6,0.6
		C86.3,88.5,86.3,90.1,86.3,91.7z"/>
	<path class="st1" d="M49.9,39.6c-2.9,0-5.3,2.5-5.3,5.2c0,2.8,2.4,5.2,5.2,5.2c2.9,0,5.2-2.3,5.2-5.2C55.1,42,52.7,39.6,49.9,39.6z
		 M49.9,47.2c-1.4,0-2.4-1-2.4-2.4c0-1.3,1.1-2.4,2.3-2.4c1.3,0,2.4,1.2,2.4,2.4C52.2,46.1,51.2,47.2,49.9,47.2z"/>
	<path class="st1" d="M56.2,38.4c-3.2-3.3-9.2-3.7-12.9,0c-0.7,0.7-1.5,0.6-2.1,0c-0.5-0.6-0.5-1.3,0.2-2c2.1-2.1,5.2-3.4,8.8-3.4
		c2.7,0.1,5.5,1.2,7.8,3.4c0.7,0.7,0.7,1.5,0.1,2.1C57.6,39,56.8,39.1,56.2,38.4z"/>
	<path class="st1" d="M36.2,33.1c-0.6-0.6-0.5-1.3,0.1-2c0.3-0.3,0.7-0.7,1.1-1c7.5-6.5,19-6.1,26,0.9c0.3,0.3,0.6,0.7,0.6,1.2
		c0,0.6-0.3,1-0.8,1.3c-0.5,0.2-1.1,0.2-1.5-0.2c-1-0.9-2-1.8-3.2-2.5c-6.3-3.8-14.1-3-19.6,1.9c-0.2,0.2-0.4,0.4-0.6,0.5
		C37.5,33.7,36.7,33.7,36.2,33.1z"/>
	<path class="st1" d="M68.9,27.8c-0.6,0.7-1.4,0.6-2.3-0.2c-4.8-4.6-10.5-6.9-17-6.8c-6.2,0-11.7,2.2-16.3,6.5
		c-1.1,1-1.9,1.2-2.5,0.4c-0.6-0.7-0.4-1.4,0.7-2.4c5.2-4.8,11.3-7.1,18.4-7.3c7.2,0.1,13.5,2.6,18.8,7.7
		C69.4,26.4,69.5,27.2,68.9,27.8z"/>
	<path class="st1" d="M68.9,27.8c-0.6,0.7-1.4,0.6-2.3-0.2c-4.8-4.6-10.5-6.9-17-6.8c-6.2,0-11.7,2.2-16.3,6.5
		c-1.1,1-1.9,1.2-2.5,0.4c-0.6-0.7-0.4-1.4,0.7-2.4c5.2-4.8,11.3-7.1,18.4-7.3c7.2,0.1,13.5,2.6,18.8,7.7
		C69.4,26.4,69.5,27.2,68.9,27.8z"/>
	<path class="st1" d="M63.9,32.1c0,0.6-0.3,1-0.8,1.3c-0.5,0.2-1.1,0.2-1.5-0.2c-1-0.9-2-1.8-3.2-2.5c-6.3-3.8-14.1-3-19.6,1.9
		c-0.2,0.2-0.4,0.4-0.6,0.5c-0.7,0.6-1.5,0.6-2,0c-0.6-0.6-0.5-1.3,0.1-2c0.3-0.3,0.7-0.7,1.1-1c7.5-6.5,19-6.1,26,0.9
		C63.6,31.3,63.9,31.6,63.9,32.1z"/>
	<path class="st1" d="M49.9,39.6c-2.9,0-5.3,2.5-5.3,5.2c0,2.8,2.4,5.2,5.2,5.2c2.9,0,5.2-2.3,5.2-5.2C55.1,42,52.7,39.6,49.9,39.6z
		 M49.9,47.2c-1.4,0-2.4-1-2.4-2.4c0-1.3,1.1-2.4,2.3-2.4c1.3,0,2.4,1.2,2.4,2.4C52.2,46.1,51.2,47.2,49.9,47.2z"/>
	<path class="st1" d="M58.2,38.4c-0.6,0.6-1.4,0.6-2,0c-3.2-3.3-9.2-3.7-12.9,0c-0.7,0.7-1.5,0.6-2.1,0c-0.5-0.6-0.5-1.3,0.2-2
		c2.1-2.1,5.2-3.4,8.8-3.4c2.7,0.1,5.5,1.2,7.8,3.4C58.7,37,58.8,37.8,58.2,38.4z"/>
</g>
</svg>
