<?xml version="1.0" encoding="utf-8"?>
<!-- Generator: Adobe Illustrator 24.0.2, SVG Export Plug-In . SVG Version: 6.00 Build 0)  -->
<svg version="1.1" id="Layer_1" xmlns="http://www.w3.org/2000/svg" xmlns:xlink="http://www.w3.org/1999/xlink" x="0px" y="0px"
	 viewBox="0 0 691.6 193.6" style="enable-background:new 0 0 691.6 193.6;" xml:space="preserve">
<style type="text/css">
	.st0{fill:#2F83C5;}
	.st1{fill:#7ECEF3;}
</style>
<g>
	<g>
		<path class="st0" d="M106.7,124.8H79c0.1,1,0.2,2,0.2,3H38.7c0.1-1,0.2-2,0.4-3H11.1c-0.7,4.1-1,8.5-1,13.1
			c0,17.1,4.4,30.7,13.1,40.7c8.7,10,20.5,15,35.4,15c12.1,0,22.4-3.1,30.8-9.2s14-14.7,16.8-25.5H78.8c-1.8,3.9-4.2,6.8-7.2,8.7
			c-3,1.9-6.9,2.8-11.7,2.8c-6.7,0-11.8-2-15.4-6.1c-3.6-4.1-5.5-10.2-5.9-18.3h68.8c0.1-0.9,0.2-1.8,0.2-2.8c0-1,0-2.5,0-4.4
			C107.7,133.7,107.4,129.1,106.7,124.8z"/>
		<path class="st0" d="M183.3,125.3l0.5-0.5h-57.4v65.3h26.8v-32.6l10.4-11.3l24.6,43.9h33.1L183.3,125.3z"/>
		<path class="st0" d="M319.7,180.7c-0.9-2.1-1.3-5.3-1.3-9.6v-46.3h-35.1c-2.5,0.8-5.6,1.5-9.3,2c-4.6,0.6-8.3,1.1-11.2,1.5
			c-12.5,1.9-21.4,5.4-26.8,10.5c-5.4,5.1-8.1,12.5-8.1,22.3c0,10.5,2.7,18.6,8.1,24.3c5.4,5.7,13.1,8.5,23.1,8.5
			c7.5,0,14-1.4,19.6-4.2s10.2-6.9,13.6-12.3c0.1,2.5,0.3,4.8,0.8,6.9c0.5,2.2,1.2,4.1,2.2,5.9h28.7v-4.6
			C322.1,184.4,320.6,182.8,319.7,180.7z M292,149.2c0,7.3-2.1,13-6.4,17.2c-4.3,4.2-10.1,6.3-17.6,6.3c-4.2,0-7.5-1.1-9.9-3.4
			c-2.5-2.2-3.7-5.3-3.7-9c0-3.7,1-6.5,2.9-8.6c1.9-2.1,5.3-3.8,10.2-5.2c0.2-0.1,3.2-0.7,9-2c5.8-1.3,11-2.9,15.5-5V149.2z"/>
		<path class="st0" d="M422.8,138.5c-5-4.5-14.4-8.4-28.1-11.6c-1.8-0.4-4.3-1-7.5-1.7c-0.5-0.1-1-0.2-1.5-0.4h-45.3
			c1.1,4.7,3.5,8.7,7,11.9c5.2,4.7,14.5,8.7,27.9,12.1c2.7,0.7,6.2,1.5,10.7,2.5c11,2.3,16.5,5.8,16.5,10.5c0,3.3-1.5,5.8-4.4,7.6
			c-2.9,1.8-7.1,2.7-12.5,2.7c-7.1,0-12.4-1.3-15.9-3.8c-3.5-2.6-5.4-6.5-5.7-11.7h-27.5v1.1c0,11.2,4,20,12,26.3
			c8,6.4,19.1,9.6,33.3,9.6c15.7,0,27.7-3.1,36-9.2c8.2-6.1,12.4-15,12.4-26.7C430.4,149.5,427.9,143,422.8,138.5z"/>
		<path class="st0" d="M513.1,124.8c0.3,3.3,0.4,7.1,0.4,11.4v53.9h27.4v-65.3H513.1z M448.9,190.1h27.4V129c0-1.5,0.1-2.9,0.3-4.2
			h-27.7V190.1z"/>
		<path class="st0" d="M651.5,180.7c-0.9-2.1-1.3-5.3-1.3-9.6v-46.3H615c-2.5,0.8-5.6,1.5-9.2,2c-4.6,0.6-8.3,1.1-11.2,1.5
			c-12.4,1.9-21.4,5.4-26.8,10.5c-5.4,5.1-8.1,12.5-8.1,22.3c0,10.5,2.7,18.6,8.1,24.3c5.4,5.7,13.1,8.5,23.1,8.5
			c7.5,0,14-1.4,19.6-4.2c5.6-2.8,10.2-6.9,13.6-12.3c0.1,2.5,0.4,4.8,0.9,6.9c0.5,2.2,1.2,4.1,2.2,5.9h28.7v-4.6
			C653.8,184.4,652.3,182.8,651.5,180.7z M623.7,149.2c0,7.3-2.1,13-6.4,17.2c-4.3,4.2-10.1,6.3-17.6,6.3c-4.2,0-7.5-1.1-9.9-3.4
			c-2.5-2.2-3.7-5.3-3.7-9c0-3.7,1-6.5,2.9-8.6c1.9-2.1,5.3-3.8,10.2-5.2c0.2-0.1,3.2-0.7,9-2c5.8-1.3,11-2.9,15.5-5V149.2z"/>
	</g>
	<g>
		<path class="st1" d="M106.7,124.8H79c-0.6-5.5-2.4-9.8-5.3-12.9c-3.4-3.6-8.4-5.4-14.8-5.4c-6,0-10.7,1.8-14.2,5.5
			c-2.9,3.1-4.8,7.4-5.7,12.8H11.1c1.7-10.8,5.7-19.7,11.9-26.7c8.6-9.7,20.3-14.6,35.2-14.6c15.8,0,28,4.8,36.6,14.3
			C101,104.7,105,113.7,106.7,124.8z"/>
		<polygon class="st1" points="219.2,87.2 183.8,124.8 126.5,124.8 126.5,50.6 153.3,50.6 153.3,123.8 186.1,87.2 		"/>
		<path class="st1" d="M318.4,112.5v12.2h-35.1c5.5-1.8,8.3-4.6,8.3-8.2c0-4.2-1.3-7.1-3.9-8.9c-2.6-1.8-6.9-2.7-13-2.7
			c-5.6,0-9.8,1.1-12.8,3.3c-3,2.2-4.5,5.4-4.5,9.5v1.5h-25.8v-1.9c0-10.5,3.7-18.8,11.2-24.9c7.4-6,17.7-9,30.9-9
			c14.4,0,25.4,2.5,33.1,7.5C314.6,95.9,318.4,103.1,318.4,112.5z"/>
		<path class="st1" d="M427.1,118.5h-26.8c-0.2-4.4-1.8-7.7-5-10.1c-3.1-2.4-7.5-3.6-13-3.6c-5.2,0-9.1,0.8-11.7,2.4s-3.8,4-3.8,7.1
			c0,4,6.3,7.5,19,10.5h-45.3c-0.5-2.2-0.8-4.5-0.8-7c0-10.5,3.8-18.9,11.4-25c7.6-6.2,17.9-9.2,30.9-9.2c13.8,0,24.6,3.1,32.5,9.2
			C422.4,98.8,426.5,107.4,427.1,118.5z"/>
		<path class="st1" d="M540.9,121.4v3.3h-27.8c-0.5-6.2-1.6-10.4-3.1-12.6c-2.3-3.3-6.5-4.9-12.6-4.9c-6.5,0-11.7,1.9-15.4,5.8
			c-3,3-4.8,6.9-5.4,11.6h-27.7V50.6h27.4v47.9c3.7-4.7,8.2-8.2,13.3-10.6c5.2-2.4,10.9-3.5,17.3-3.5c6.1,0,11.5,1,16.4,3.1
			c4.9,2.1,8.8,5.1,11.9,8.9c2.1,2.6,3.5,5.5,4.4,8.9C540.5,108.7,540.9,114.1,540.9,121.4z"/>
		<path class="st1" d="M650.1,112.5v12.2H615c5.5-1.8,8.3-4.6,8.3-8.2c0-4.2-1.3-7.1-3.9-8.9c-2.6-1.8-6.9-2.7-13-2.7
			c-5.6,0-9.8,1.1-12.8,3.3c-3,2.2-4.5,5.4-4.5,9.5v1.5h-25.8v-1.9c0-10.5,3.7-18.8,11.2-24.9c7.5-6,17.8-9,30.9-9
			c14.4,0,25.4,2.5,33.1,7.5S650.1,103.1,650.1,112.5z"/>
	</g>
	<g>
		<path class="st1" d="M661.1,97.1v-9.7h-3.5v-2.1h9.4v2.1h-3.5v9.7H661.1z"/>
		<path class="st1" d="M668.4,97.1V85.3h3.6l2.3,9l2.3-9h3.6v11.8h-2.3v-9.5l-2.4,9.5h-2.5l-2.4-9.5v9.5H668.4z"/>
	</g>
	<polygon class="st1" points="576.2,42.3 576.2,42.3 576.1,42.2 552.7,-0.2 655.2,42.2 656.7,42.8 	"/>
	<polygon class="st0" points="656.7,42.8 552.7,84.8 576.2,42.3 656.7,42.8 	"/>
</g>
</svg>
