<?xml version="1.0" encoding="utf-8"?>
<!-- Generator: Adobe Illustrator 24.0.2, SVG Export Plug-In . SVG Version: 6.00 Build 0)  -->
<svg version="1.1" id="Layer_1" xmlns="http://www.w3.org/2000/svg" xmlns:xlink="http://www.w3.org/1999/xlink" x="0px" y="0px"
	 viewBox="0 0 841.9 164.7" enable-background="new 0 0 841.9 164.7" xml:space="preserve">
<g>
	<g>
		<g>
			<path fill="#EAEAEA" d="M742.1,84.6c-0.3,1.3-0.6,2.7-0.9,4c-2.6,11.1-5.2,22.6-8.7,33.7c-5.5,17.4-17.2,27.6-35,30.6
				c-1.1,0.2-2.4,0.2-3.7,0.2c-0.3,0-0.6,0-0.9,0c-4.3,0-8.7,0-12.9,0c-10.4,0-21.2,0-31.8-0.2c-5.5-0.2-10.5-1.7-14.3-4.4
				c-4.1-2.9-6.8-6.9-8.1-12c-1.5-5.6-0.9-11.6,1.7-18.3c2.8-7.2,6.6-13.1,11.5-17.6c5-4.6,11.3-7.9,18.6-9.8
				c3.1-0.8,6.2-0.9,10-0.9c5.7,0,11.4,0,17,0l1.2,0c7.2,0,14.6,0.1,22,0l0.1,0c0,0,0,0,0,0.1c-1.8,6.4-3.4,12.9-4.9,19.1
				c-0.1,0.4-0.2,0.6-0.2,0.6c-0.1,0-0.3,0.1-0.8,0.1c-15.6-0.1-28.6-0.2-40.7-0.2c-8.5,0-15.2,6.1-15.6,14.1
				c-0.2,4.5,2.3,7.9,6.6,8.9c1.5,0.4,3.1,0.5,4.7,0.6c14.3,0.1,28.6,0.1,40.7,0.2c8.4,0,13.7-4.1,15.8-12.1
				c2.8-10.9,5.6-21.8,8.3-32.9c0.9-3.6,0.5-6.7-1.3-8.9c-1.7-2.2-4.6-3.4-8.3-3.4c-11.8-0.1-23.8-0.1-35.5-0.2c-4.7,0-9.5,0-14.2,0
				l-0.8,0c0.3-1.2,0.6-2.3,0.9-3.5c1.4-5.5,2.7-10.8,4-16.1c0,0,0,0,0-0.1c0.1,0,0.2,0,0.3,0c5.5,0,11.2,0,16.6,0.1
				c11.3,0,23,0,34.5,0.2c7.7,0.1,13.3,2,17.6,5.9C742,68,744.2,75.5,742.1,84.6z"/>
		</g>
		<g>
			<path fill="#EAEAEA" d="M371.3,78c-0.3,5.7-1.8,11.4-3.3,16.9c-0.7,2.4-1.4,4.9-1.9,7.4c-1.4,6-2.8,11.5-4.2,16.6
				c-2.3,8-6,14.7-10.9,19.9c-5.1,5.3-11.6,9.2-19.5,11.6c-2.7,0.8-5.9,1.2-9.9,1.2c-5,0-10.1,0-15,0c-9.8,0-19.8,0.1-29.7-0.3
				c-6.6-0.2-12.3-2.3-16.4-6c-4.2-3.8-6.5-9.2-6.7-15.6c-0.2-7.9,2.3-15.8,7.7-23.3c4.2-6,9.2-10.5,14.8-13.5
				c5.7-3.1,12.3-4.6,19.5-4.6c2.8,0,5.6,0,8.3,0c1.8,0,3.6,0,5.3,0c8.8,0,18,0.1,27,0.1l0.1,0c0,0,0,0,0,0
				c-1.8,6.5-3.4,13-4.8,19.1c-0.1,0.3-0.1,0.5-0.2,0.6c0,0.1-0.1,0.1-0.1,0.1c0,0-0.2,0.1-0.7,0.1c-12.1-0.1-25-0.2-40.7-0.2
				c-8.1,0-13.9,4.7-15.5,12.6c-0.5,2.5-0.1,4.9,1.1,6.8c1.3,1.9,3.3,3.2,5.8,3.7c1.4,0.3,2.9,0.5,4.4,0.5
				c13.8,0.1,27.6,0.1,40.4,0.2c8.5,0,13.8-4.1,15.9-12.3c2.5-9.9,5.4-21.2,8.2-32.2c1-4,0.6-7.2-1.1-9.5c-1.8-2.3-4.8-3.5-9-3.5
				c-11.6-0.1-23.3-0.1-34.7-0.1c-4.7,0-9.5,0-14.2-0.1l-0.8,0c0.3-1.2,0.6-2.3,0.9-3.5c1-4.2,2-8.1,3.1-12.1
				c0.5-1.9,0.9-3.4,1.3-3.7c0.4-0.3,1.9-0.3,4-0.3c4.4,0,8.8,0,13.2,0c10.7,0,21.9,0.1,32.8,0.2c7.5,0.1,12.7,1.5,17.1,4.6
				C368.7,63.9,371.7,70.2,371.3,78z"/>
		</g>
		<g>
			<path fill="#EAEAEA" d="M123.2,81.1c-1.6,8.2-4.7,15.1-9.4,20.8c-4.7,5.6-11,10-18.8,13.1c-4.4,1.7-9,2-13.4,2l-0.1,0
				c-4.5,0-9.1,0-13.6-0.1l-4.2,0c-2,0-4.1,0-6.1,0c-5.4,0-11-0.1-16.5,0c-0.1,0-0.1,0-0.2,0c0,0,0-0.1,0-0.1
				c1.6-5.9,3.1-11.9,4.5-17.8l0.3-1.1c0.1-0.6,0.3-0.7,0.3-0.7c0,0,0.1-0.1,0.8-0.1c13.8,0.1,27.4,0.2,40.2,0.2
				c8.3,0,13.9-4.2,15.8-11.9c0.8-3.2,0.4-6.1-1.2-8.3c-1.6-2.2-4.2-3.4-7.4-3.6c-2.8-0.1-5.7-0.1-8.4-0.1c-1.1,0-2.2,0-3.3,0
				c-10.1,0-20.3-0.1-30.4-0.1c-9.4,0-14.4,3.8-16.7,12.9l-1.7,6.6c-2.1,8.2-4.3,16.7-6.4,25.1c-1,4-0.6,7.2,1.1,9.4
				c1.7,2.3,4.7,3.4,8.8,3.4c13.5,0.1,26.7,0.2,39.9,0.1c0.3,0,0.5,0,0.7,0c0,0.2-0.1,0.4-0.2,0.7c-1.8,6.2-3.3,12.6-4.8,18.6
				c-0.1,0.2-0.1,0.3-0.1,0.4c-0.1,0-0.2,0-0.3,0c-4.8,0-9.7,0-14.5,0c-9.6,0.1-19.6,0.1-29.3-0.4c-7.9-0.4-14.2-3.3-18.2-8.5
				c-3.9-5-5.3-11.8-3.8-19.1c2.2-11,5.1-22.5,9.3-37.3c4.7-16.1,15-26.5,30.8-30.7c3.5-0.9,7.1-1.1,10.2-1.1l5.6,0
				c5.9,0,11.9,0,17.9,0c6,0,11.9,0.1,17.9,0.1c9.4,0.1,15.7,2.5,20.3,7.8C123,67.1,124.6,73.6,123.2,81.1z"/>
		</g>
		<g>
			<path fill="#EAEAEA" d="M483.7,55.3c0,0,0,0.1,0,0.1l-0.7,2.8c-1.4,5.5-2.9,11.3-4.3,16.9c-0.3,1.1-0.3,1.1-1.5,1.1
				c-15.2-0.1-30.7-0.2-45.7-0.2l-9.1,0l-0.5,0c-1.2,0-2.4,0-3.6,0.1c-2.6,0.3-4.4,1.7-5.3,4.1c-0.9,2.4-0.9,4.1,0,5.4
				c0.9,1.3,2.5,1.9,4.9,1.9c6,0,12.2,0.1,18.1,0.1c5.9,0,12.1,0,18.1,0.1c4.3,0,8.9,0.3,13,2c8,3.4,12.3,9.6,12.9,18.6
				c0.6,8.6-1.9,17.4-6.9,24.8c-5,7.4-12.3,13.1-20.6,16c-5.5,2-10.9,2.9-16.6,2.8c-8.9-0.1-17.9-0.1-26.8-0.2c-5.5,0-11,0-16.5,0
				c-5.5,0-11,0-16.5,0l-1.1,0c0.3-1.2,0.6-2.4,0.9-3.5c1.5-5.9,2.9-11.5,4.4-17.3c0,0,0,0,0-0.1c0.4,0,0.9,0,1.3,0
				c0.2,0,0.3,0,0.5,0l13.6,0c15.6,0.1,31.2,0.1,46.7,0.2l0,0c2.8,0,5.8-0.2,8.5-1.5c5.1-2.4,8.5-9.5,7.3-15.2
				c-0.8-3.6-3.8-5.7-7.9-5.8c-6.6-0.1-13.4-0.1-19.9-0.1c-4.8,0-9.8,0-14.7-0.1c-2.6,0-5-0.1-7.4-0.3c-6-0.5-10.9-3-14.1-7.2
				c-3.3-4.2-4.5-10-3.4-16.1c1.4-8.2,5.8-15.8,12.3-21.2c6.5-5.5,14.8-8.5,23.3-8.5c10.9,0,22,0,32.7,0.1
				C467.4,55.2,475.6,55.3,483.7,55.3z"/>
		</g>
		<g>
			<path fill="#EAEAEA" d="M197.1,98c-0.2,1.2,0.5,2.2,1.2,3.1c10.9,13.8,21.9,27.9,32.6,41.6c2.3,2.9,4.5,5.8,6.8,8.7
				c-3.5,0-6.9,0-10.4,0c-6.3,0-12.9,0-19.4,0c-0.8,0-1.1-0.1-1.5-0.8c-6.1-7.9-12.4-15.9-18.4-23.6c-5.1-6.5-10.3-13.2-15.5-19.9
				c-2.5-3.2-3.5-6.2-3.1-9.1c0.4-2.9,2.3-5.6,5.6-8c3.3-2.4,6.8-4.7,10.2-6.9c1.3-0.9,2.7-1.8,4.1-2.7
				c11.2-7.5,22.6-15.1,33.6-22.4l4.2-2.8c0.9-0.6,1.4-0.9,2.2-0.9l0,0c8.8,0.1,17.7,0.1,26.3,0.1l5.7,0c-2.6,1.7-5.1,3.4-7.6,5.1
				c-9.1,6-17.7,11.7-26.5,17.6c-2.9,1.9-5.9,3.9-8.8,5.9c-6.3,4.2-12.7,8.5-19.1,12.7C198.2,96,197.3,96.8,197.1,98z"/>
		</g>
		<g>
			<path fill="#EAEAEA" d="M616.3,84.9c-3.6,15.3-7.6,30.7-11.4,45.7c-1.4,5.6-2.9,11.4-4.3,17.1c-0.2,0.6-0.3,1.3-0.4,1.9
				c-0.2,1.3-0.5,2.7-1,3.2c-0.4,0.4-1.8,0.2-2.9,0.1c-0.7-0.1-1.4-0.2-2.1-0.2l-0.1,0c-4.2,0-8.2,0-12.6,0c-1,0-2,0-3.1,0
				c5.4-21.2,10.7-42.2,16-63.1c0-0.1,0.1-0.2,0.1-0.3c1.1-4.4,0.9-7.4-0.7-9.5c-1.6-2-4.4-3-9-3l-5.6,0
				c-11.3-0.1-23.1-0.1-34.6-0.1c-0.1,0-0.2,0-0.2,0c0-0.1,0-0.1,0.1-0.2c1.7-6.1,3.2-12.4,4.7-18.5l0.4-1.7
				c0.1-0.3,0.1-0.4,0.2-0.5c0.1,0,0.2,0,0.5,0c6.5,0.1,13,0.1,19.3,0.1c7.1,0,14.5,0,21.8,0.1c7.4,0.1,13.1,1.9,17.6,5.5
				C616.3,67,618.7,75,616.3,84.9z"/>
		</g>
		<g>
			<path fill="#EAEAEA" d="M547.7,13.2l-3,11.9c-2.6,10-5.1,20-7.6,29.9l-3.6,14c-6.8,26.9-13.9,54.7-20.8,82.1
				c-0.3,1.2-0.4,1.3-1.6,1.2c-3.2-0.1-6.5-0.1-9.7-0.1c-2,0-3.9,0-5.9,0c-1.3,0-2.6,0-3.9,0l1.9-7.4c1.7-6.8,3.4-13.5,5.1-20.2
				c2-8,4.1-16,6.1-24c7.2-28.3,14.6-57.5,21.9-86.2c0.4-1.4,0.5-1.5,1.7-1.4c5.2,0.2,10.4,0.1,15.5,0.1
				C545,13.2,546.3,13.2,547.7,13.2z"/>
		</g>
		<g>
			<path fill="#EAEAEA" d="M181.8,11.8c-0.2,0.9-0.5,1.9-0.7,2.8c-0.9,3.4-1.7,6.6-2.5,9.9l-6.1,24c-8.5,33.2-17.2,67.6-25.8,101.4
				c-0.3,1.1-0.3,1.1-1.3,1.1c-3.3-0.1-6.6-0.1-9.9-0.1c-1.9,0-3.9,0-5.9,0c-1.3,0-2.7,0-4,0c1.6-6.1,3.1-12.2,4.7-18.3
				c3.8-14.9,7.8-30.4,11.6-45.5l0.1-0.3c6.2-24.3,12.6-49.4,18.8-74.2c0.2-0.7,0.3-0.8,0.3-0.8c0,0,0.2-0.1,0.8-0.1
				c5.3,0.1,10.5,0.1,15.9,0.1C179.1,11.8,180.4,11.8,181.8,11.8z"/>
		</g>
	</g>
	<g>
		<g>
			<g>
				<path fill="#F99826" stroke="#F99826" stroke-width="3.514" stroke-miterlimit="10" d="M836.1,87.1c-0.2,2.3-2,4.2-3.5,5.3
					c-4.3,3.3-47.7,34.2-54.3,38.9c-0.1,0.1-0.2,0.1-0.2,0.2c-5.5,0-11.1-0.1-16.6-0.1c4.9-3.5,42.4-30.2,52.4-37.3
					c0.8-0.6,3-2.1,3.4-5c0.4-2.9-1.4-4.9-2.1-5.7c-10.6-12.2-21.3-24.6-31.7-36.7l-2-2.4c6.8,0,13.6,0.1,20.3,0
					c4.9,5.7,9.9,11.4,14.8,17.2c5.7,6.5,11.3,13.1,17,19.6C834.9,82.5,836.3,84.7,836.1,87.1z"/>
			</g>
		</g>
	</g>
	<g>
		<circle fill="#F99826" cx="76.1" cy="25.7" r="11"/>
	</g>
</g>
</svg>
