<?xml version="1.0" encoding="utf-8"?>
<!-- Generator: Adobe Illustrator 24.0.2, SVG Export Plug-In . SVG Version: 6.00 Build 0)  -->
<svg version="1.1" id="Layer_1" xmlns="http://www.w3.org/2000/svg" xmlns:xlink="http://www.w3.org/1999/xlink" x="0px" y="0px"
	 viewBox="0 0 100 100" style="enable-background:new 0 0 100 100;" xml:space="preserve">
<style type="text/css">
	.st0{fill:#4e8bff;}
	.st1{fill:none;stroke:#4e8bff;stroke-width:3;stroke-miterlimit:10;}
</style>
<g>
	<g>
		<g>
			<path class="st0" d="M31.4,60.3c2.2-3.4,5.2-5.8,8.8-7.4c4.5-1.9,9.1-2.3,13.8-1.1c2.6,0.7,5,1.9,7.1,3.6
				c0.2,0.2,0.5,0.3,0.7,0.4c0.7,0.2,1.5-0.1,1.9-0.8c0.4-0.7,0.2-1.5-0.5-2.1c-1.9-1.6-4-2.8-6.3-3.7c-0.5-0.2-1-0.4-1.6-0.6
				c4.3-2.3,7.1-5.7,8.1-10.5c1-4.8-0.2-9-3.4-12.7c-5.5-6.3-15.1-6.7-21.2-1.1c-3.1,2.8-4.7,6.4-4.8,10.6c0,6.1,2.9,10.6,8.2,13.6
				c-0.1,0-0.2,0.1-0.2,0.1c-3.1,0.9-5.9,2.3-8.4,4.3c-3.2,2.6-5.7,5.7-7,9.7c-0.7,2.1-1,4.3-0.6,6.5c0.4,2.4,1.7,4.2,4,5.1
				c1.4,0.5,2.8,0.8,4.2,0.8c9.2,0,18.4,0,27.5,0c0.2,0,0.3,0,0.5,0c0.7-0.1,1.1-0.5,1.3-1.2c0.2-0.6,0-1.2-0.5-1.7
				c-0.4-0.3-0.8-0.4-1.3-0.4c-9.2,0-18.3,0-27.5,0c-1,0-2-0.1-2.9-0.5c-1.1-0.4-1.8-1.1-2-2.1c-0.1-0.7-0.3-1.4-0.2-2.1
				C29.2,64.7,30,62.4,31.4,60.3z M37.3,35.4c0-6.4,5.2-11.5,11.5-11.5c6.3,0,11.5,5.2,11.5,11.5c0,6.3-5.2,11.5-11.5,11.5
				C42.5,46.9,37.3,41.8,37.3,35.4z"/>
			<path class="st0" d="M66.1,66.6c-0.2,0-0.3,0-0.4,0c-2.2,0-4.4,0-6.6,0c-0.9,0-1.6-0.5-1.8-1.4c-0.2-0.9,0.5-1.8,1.4-2
				c0.2,0,0.3,0,0.5,0c2.1,0,4.3,0,6.4,0c0.1,0,0.3,0,0.4,0c0-0.2,0-0.3,0-0.4c0-2.2,0-4.4,0-6.7c0-0.7,0.4-1.3,1.1-1.6
				c0.6-0.3,1.4-0.1,1.8,0.4c0.4,0.4,0.5,0.8,0.5,1.3c0,2.2,0,4.3,0,6.5c0,0.1,0,0.3,0,0.4c0.2,0,0.3,0,0.4,0c2.2,0,4.4,0,6.5,0
				c0.9,0,1.6,0.5,1.8,1.4c0.2,1.1-0.6,2-1.6,2c-1.4,0-2.7,0-4.1,0c-0.9,0-1.7,0-2.6,0c-0.1,0-0.2,0-0.4,0c0,0.2,0,0.3,0,0.4
				c0,2.2,0,4.4,0,6.6c0,1-0.7,1.7-1.6,1.8c-1,0.1-1.8-0.7-1.8-1.7c0-2.2,0-4.4,0-6.6C66.1,66.9,66.1,66.8,66.1,66.6z"/>
		</g>
	</g>
	<circle class="st1" cx="50" cy="50" r="39.3"/>
</g>
<g>
</g>
<g>
</g>
<g>
</g>
<g>
</g>
<g>
</g>
<g>
</g>
</svg>
