<?xml version="1.0" encoding="utf-8"?>
<!-- Generator: Adobe Illustrator 24.0.2, SVG Export Plug-In . SVG Version: 6.00 Build 0)  -->
<svg version="1.1" id="Layer_1" xmlns="http://www.w3.org/2000/svg" xmlns:xlink="http://www.w3.org/1999/xlink" x="0px" y="0px"
	 viewBox="0 0 100 100" style="enable-background:new 0 0 100 100;" xml:space="preserve">
<style type="text/css">
	.st0{opacity:0.5;fill:#3F72B8;}
	.st1{fill:#9399A1;}
	.st2{fill:#4062AD;}
	.st3{fill:#7B97CD;}
	.st4{opacity:0.5;}
</style>
<g>
	<path class="st1" d="M9.8,50c0-3.5,0.5-7,1.4-10.4C8.9,38.8,7,37.7,5,36.8c-1.3,4.3-1.9,8.8-1.9,13.3c0,13.9,6.2,27.1,16.8,36
		c1.9-1.5,3.9-2.6,5.9-3.8C16.1,74.8,9.8,63.1,9.8,50z"/>
	<path class="st2" d="M20.1,41.6c-3.3,1.1-13.6,5.2-14.6,13.6c0,0.6,0,1.1,0.1,1.7c0.8,3.9,5.9,17.3,39.1,21c3,0.3,6.1,0.4,9.1,0.4
		c12.5-0.3,43.8-3,37.8-21.8c-0.7-2.2-2-4-3.8-5.4c-2.9-2.1-6-4-9.3-5.5c-0.7-0.3-1.2-0.9-1.4-1.6c-1.6-5.1-9.1-25.7-22.4-25.7
		c-5.6-0.2-11.1,0.5-16.5,2.2c-0.3,0.1-0.6,0.2-0.9,0.3c-1.7,0.4-7.1,1.5-10,1c0,0-4.5-1.1-6.1,18.4C21.2,40.8,20.8,41.4,20.1,41.6z
		"/>
	<path class="st1" d="M20.2,47.6c-0.1,1.6-0.3,4.2-0.4,5.7c-0.1,0.8,0.3,1.6,0.9,2.1c2.6,2,10.5,6.6,29.3,6.1c0,0,21.9,0,27.3-9.1
		c0.1-0.1,0.1-0.2,0.1-0.4v-4.7c0-0.4-0.3-0.7-0.7-0.7c-0.1,0-0.3,0-0.4,0.1c-2.7,1.9-10.3,6.3-23,7.1c-2.7,0.2-5.4,0.1-8.1-0.2
		c-6-0.6-17.8-2.3-23.8-6.5c-0.4-0.3-0.9-0.1-1.1,0.2C20.2,47.3,20.2,47.4,20.2,47.6z"/>
	<path class="st3" d="M22.7,53.1c0,3.1,2.8,7.1,17.4,7.1c1.1,0,2.1-0.7,2.5-1.7c0.4-1,0.6-2.3,0.4-3.5c-0.3-1.2-1.4-1.9-2.6-1.9
		c-4.8,0.1-9.6-0.7-14.1-2.3C24.6,50.2,22.7,51.4,22.7,53.1z"/>
	<path class="st3" d="M56.7,38.9c0,0-16.9,15.7-27.4-5.2C29.3,33.7,36.6,41,56.7,38.9z"/>
	<path class="st3" d="M63.7,25.6c0,0,1.8,0,1.1,1.1c0,0-6.1,3.2-27.1-4.4C37.8,22.3,59.3,28.1,63.7,25.6z"/>
	<path class="st1" d="M50,3.1c-17.4,0-32.6,9.5-40.7,23.5C7.5,29.8,6,33.2,5,36.7c2.1,0.9,4,2,6.2,2.8c0.6-2.3,1.4-4.6,2.5-6.7
		c1.5-3.1,3.4-6,5.6-8.7l54.5,58.3C59.5,92.9,40,92.8,25.8,82.1c-2,1.2-4,2.3-5.9,3.8C28.3,93,39,96.9,50,96.9
		c25.9,0,46.9-21,46.9-46.9C96.9,24.1,75.9,3.1,50,3.1z M79.6,77.2L24.5,18.9C41.7,4.8,67,7.4,81,24.5c5.9,7.2,9.1,16.2,9.1,25.4
		C90.2,60.1,86.4,69.8,79.6,77.2z"/>
</g>
</svg>
