<?xml version="1.0" encoding="utf-8"?>
<!-- Generator: Adobe Illustrator 24.0.0, SVG Export Plug-In . SVG Version: 6.00 Build 0)  -->
<svg version="1.0" id="Layer_1" xmlns="http://www.w3.org/2000/svg" xmlns:xlink="http://www.w3.org/1999/xlink" x="0px" y="0px"
	 viewBox="0 0 104.8 40.92" style="enable-background:new 0 0 104.8 40.92;" xml:space="preserve">
<style type="text/css">
	.st0{fill:#9398A0;}
	.st1{fill:#3F72FF;}
</style>
<g>
	<path id="Fill-5" class="st0" d="M50.82,35.4c0.1-0.08,0.19-0.19,0.24-0.31c0.71-1.13,1.43-2.26,2.13-3.4
		c0.09-0.17,0.27-0.26,0.45-0.24c0.57,0,1.15,0,1.72,0c0.24,0,0.24,0,0.25,0.23c0,0.07,0,0.13,0,0.2v8.57c0,0.08,0,0.16,0,0.23
		c0,0.08-0.05,0.22-0.21,0.22h-1.68c-0.16,0-0.22-0.06-0.21-0.22c0.01-0.16,0-0.15,0-0.23v-5.6c-0.16,0-0.19,0.17-0.25,0.25
		l-2.23,3.35c-0.06,0.11-0.13,0.2-0.23,0.29l-2.62-3.92c-0.04,0.12-0.06,0.26-0.04,0.39c0,1.76,0,3.52,0,5.27
		c0,0.43,0,0.39-0.39,0.39h-1.4c-0.28,0-0.29,0-0.29-0.29c0-0.59,0-1.17,0-1.76v-6.91c0-0.06,0-0.11,0-0.17c0-0.29,0-0.29,0.29-0.29
		c0.55,0,1.11,0,1.68,0c0.2-0.02,0.39,0.08,0.48,0.26c0.7,1.14,1.42,2.27,2.12,3.4l0.19,0.29"/>
	<path id="Fill-7" class="st0" d="M73.77,35.01v0.32c0,1.72,0,3.43,0,5.14c0,0.08,0,0.16,0,0.23c0,0.18-0.07,0.23-0.23,0.23h-1.58
		c-0.23,0-0.23,0-0.23-0.25s0-0.31,0-0.46c0-2.79,0-5.59,0-8.38c0-0.34-0.08-0.37,0.35-0.37c0.43,0,0.88,0,1.32,0
		c0.18-0.01,0.34,0.08,0.44,0.23l3.92,5.2c0.07,0.12,0.16,0.22,0.27,0.31c0.05-0.1,0.07-0.21,0.05-0.32c0-1.68,0-3.35,0-5.03
		c0-0.08,0-0.15,0-0.23s0.05-0.18,0.18-0.18h1.72c0.11,0,0.16,0.04,0.16,0.16s0,0.13,0,0.2c0,2.92,0,5.84,0,8.76
		c0,0.38,0.05,0.36-0.35,0.36c-0.4,0-0.75,0-1.12,0c-0.2,0.02-0.39-0.08-0.49-0.24c-1.34-1.78-2.67-3.55-4.02-5.31l-0.3-0.39h-0.08"
		/>
	<path id="Fill-9" class="st0" d="M89.13,36.18c0,0.84,0,1.73,0,2.59c0,0.27,0,0.28,0.28,0.28h1.55c0.48-0.01,0.95-0.15,1.35-0.41
		c1.34-0.86,1.73-2.65,0.86-3.99c-0.51-0.79-1.37-1.28-2.31-1.32H89.4c-0.27,0-0.28,0-0.28,0.28
		C89.13,34.45,89.13,35.32,89.13,36.18z M87.05,36.18c0-1.44,0-2.87,0-4.31c0-0.08,0-0.15,0-0.23s0.06-0.18,0.18-0.18h0.17
		c1.17,0,2.34,0,3.5,0c1.02-0.02,2.02,0.28,2.87,0.84c1.15,0.77,1.87,2.03,1.97,3.4c0.1,0.82-0.03,1.64-0.35,2.4
		c-0.5,1.15-1.46,2.04-2.64,2.46c-0.65,0.24-1.34,0.36-2.04,0.35h-3.35c-0.28,0-0.28,0-0.28-0.28c0-0.51,0-1.01,0-1.53L87.05,36.18z
		"/>
	<g>
		<path id="Fill-1" class="st1" d="M0,31.4c0.1,0.03,0.21,0.03,0.32,0c0.56,0,1.12,0,1.68,0c0.19-0.02,0.37,0.08,0.45,0.25
			c0.7,1.15,1.43,2.28,2.15,3.42c0.05,0.1,0.11,0.2,0.19,0.28C4.91,35.3,4.95,35.17,5,35.08c0.7-1.13,1.41-2.27,2.1-3.41
			c0.09-0.18,0.28-0.28,0.48-0.26c0.57,0,1.15,0,1.72,0c0.18,0,0.23,0.06,0.23,0.23c0,0.94,0,1.88,0,2.82v6.04c0,0.08,0,0.15,0,0.23
			c0,0.08,0,0.17-0.14,0.17H7.6c-0.13,0-0.18-0.07-0.18-0.18s0-0.15,0-0.23c0-1.77,0-3.53,0-5.31c0.02-0.13,0-0.25-0.05-0.37
			L4.75,38.8l-2.61-3.91c-0.13,0.13-0.08,0.25-0.08,0.36c0,1.75,0,3.5,0,5.24c0,0.43,0,0.43-0.44,0.44H0.33
			c-0.11-0.03-0.22-0.03-0.33,0V31.4z"/>
		<path id="Fill-11" class="st1" d="M19.37,36.88h2.51l-1.22-2.98h-0.07L19.37,36.88 M15.63,40.83c0.02-0.13,0.07-0.25,0.13-0.37
			c1.22-2.92,2.46-5.85,3.72-8.79c0.06-0.22,0.27-0.37,0.5-0.34c0.43,0.02,0.86,0.02,1.29,0c0.19-0.03,0.37,0.09,0.41,0.28
			c0.92,2.2,1.85,4.4,2.78,6.6l1.05,2.47c0,0.06,0.08,0.11,0.04,0.2c-0.15,0.02-0.3,0.02-0.44,0h-1.39
			c-0.13,0.02-0.26-0.07-0.29-0.2c-0.22-0.55-0.46-1.1-0.67-1.68c-0.04-0.18-0.22-0.31-0.4-0.29c-1.16,0-2.31,0-3.47,0
			c-0.18-0.02-0.34,0.09-0.39,0.26c-0.22,0.57-0.46,1.12-0.69,1.68c-0.05,0.13-0.11,0.2-0.26,0.19h-1.83c-0.03,0-0.06,0-0.09,0"/>
		<path id="Fill-13" class="st1" d="M35.35,34.48c0.1-0.07,0.19-0.17,0.24-0.29c0.54-0.84,1.1-1.68,1.63-2.51
			c0.1-0.18,0.3-0.28,0.5-0.24c0.59,0,1.17,0,1.75,0c0.09-0.03,0.19-0.03,0.28,0c-0.04,0.11-0.1,0.21-0.18,0.29l-2.77,4.01
			c-0.23,0.33-0.2,0.28,0,0.57l2.88,4.19c0.08,0.09,0.14,0.19,0.17,0.31c-0.09,0.08-0.19,0.04-0.29,0.04c-0.6,0-1.19,0-1.79,0
			c-0.19,0.02-0.36-0.08-0.45-0.24c-0.57-0.89-1.16-1.78-1.74-2.66c-0.05-0.11-0.13-0.2-0.23-0.28c-0.12,0.05-0.15,0.16-0.21,0.25
			c-0.59,0.9-1.18,1.79-1.76,2.69c-0.09,0.17-0.27,0.26-0.45,0.24c-0.6,0-1.22,0-1.82,0c-0.08,0.02-0.16,0.02-0.24,0
			c0.03-0.1,0.09-0.2,0.15-0.29l2.89-4.19c0.22-0.32,0.18-0.27,0-0.54l-2.79-4.07c-0.06-0.08-0.15-0.16-0.15-0.28
			c0-0.12,0.15,0,0.23,0c0.63,0,1.26,0,1.89,0c0.18-0.02,0.35,0.08,0.43,0.23c0.54,0.84,1.08,1.68,1.63,2.51l0.21,0.31"/>
	</g>
	<path class="st0" d="M64.71,40.78c0,0.04-0.01,0.06-0.03,0.08c-0.04,0.05-0.13,0.05-0.33,0.05h-1.48c-0.25,0-0.25,0-0.25-0.26
		v-4.41l-0.04-0.09v-4.53c0-0.08,0-0.16,0.15-0.16h1.82c0.11,0,0.16,0.05,0.16,0.16v8.93C64.71,40.65,64.71,40.72,64.71,40.78z"/>
	<g>
		<path id="Fill-15" class="st0" d="M79.52,21.25l-1.56-0.23l-1.59-0.23l-1.49-0.23l-1.63-0.24l-1.53-0.19l-1.63-0.24l-1.53-0.23
			l-1.51-0.25l-1.53-0.23l-1.46-0.23c-0.21,0-0.25,0-0.26,0.22c0,0.04,0,0.09,0,0.13c0,2.46,0,4.93,0,7.39
			c-0.09,0.02-0.18,0.02-0.27,0c0-2.5,0-5,0-7.49c0-0.37,0-0.3-0.33-0.37c-0.6-0.13-1.21-0.19-1.82-0.29l-2.01-0.28l-2.08-0.32
			l-1.62-0.25l-1.85-0.28l-1.63-0.24l-1.49-0.23L49.1,16.7l-1.49-0.23l-1.56-0.23L44.52,16l-2.05-0.31c-0.11-0.04-0.23-0.04-0.34,0
			c0,0.05,0.03,0.1,0.08,0.12l2.05,1.13l2.41,1.31l3.27,1.8l1.57,0.84l2.94,1.68l2.35,1.28l3.06,1.68l2.43,1.33
			c0.09,0.06,0.2,0.08,0.31,0.08c0.02,0.13,0.02,0.27,0,0.4c-0.38-0.15-0.75-0.32-1.11-0.51c-0.54-0.29-1.07-0.6-1.61-0.9
			l-3.24-1.79l-1.68-0.9l-3.03-1.68l-1.68-0.91l-3.14-1.74l-1.5-0.84l-3.2-1.77l-0.56-0.29c0.11-0.21,0.17-0.43,0.2-0.66
			c0.22,0.08,0.45,0.12,0.68,0.13l2.59,0.39c0.84,0.13,1.68,0.23,2.51,0.35c0.64,0.09,1.27,0.22,1.91,0.31l2.01,0.29l1.53,0.24
			l1.56,0.23l1.49,0.23l1.63,0.24L59.46,18l1.63,0.24l1.53,0.23c0.22,0,0.44,0.08,0.65,0.09c0.22,0.02,0.24,0,0.26-0.23
			c0-0.08,0-0.15,0-0.23c0-2.63,0-5.26,0-7.89c0-0.14,0-0.29,0-0.43h0.24c0,0.14,0,0.29,0,0.43c0,2.68,0,5.35,0,8.02
			c0,0.43,0,0.42,0.4,0.46c0.4,0.04,0.75,0.11,1.13,0.17l1.88,0.29l1.63,0.24l1.49,0.23l1.63,0.24l1.49,0.22l1.59,0.23l1.53,0.23
			c0.53,0.08,1.06,0.17,1.59,0.23c0.47,0.1,0.95,0.16,1.43,0.17l-0.05,0.34"/>
		<path id="Fill-19" class="st0" d="M102.79,12.48l0.11,0.25c-0.84,0.29-1.68,0.63-2.46,0.94l-1.17,0.45
			c-0.23,0.09-0.26,0.14-0.23,0.34c0.07,0.48,0.14,0.96,0.18,1.43c0.05,0.64,0.13,1.27,0.2,1.9c0.07,0.64,0.13,1.44,0.22,2.16
			c0,0.25,0,0.5,0.07,0.75c0.06,0.49,0.13,0.98,0.18,1.47c0.06,0.49,0.08,1.03,0.14,1.54c0.06,0.51,0.15,1.22,0.19,1.84
			c0.03,0.23,0.06,0.46,0.07,0.69c0,0.08,0.04,0.15,0.11,0.19l0.75-3.28l0.93-4.12c0.18-0.76,0.35-1.52,0.52-2.28l0.84-3.57
			l0.26,0.08c-0.16,0.7-0.31,1.42-0.47,2.12l-0.96,4.13l-1.12,4.95c-0.16,0.7-0.33,1.42-0.49,2.12c-0.21-0.03-0.42-0.03-0.63,0
			c-0.01-0.41-0.05-0.81-0.12-1.22c0-0.25-0.04-0.5-0.08-0.75c-0.09-0.84-0.16-1.62-0.27-2.42c-0.07-0.51-0.08-1.03-0.15-1.54
			c-0.08-0.51-0.12-1.02-0.17-1.53c-0.05-0.51-0.11-1.01-0.16-1.51s-0.12-1.05-0.18-1.57c0-0.29-0.07-0.57-0.08-0.84
			s-0.08-0.52-0.09-0.84c-0.34,0.08-0.66,0.2-0.97,0.35l-3.81,1.49l-4.12,1.61l-4.24,1.68l-3.53,1.39
			c-0.15,0.07-0.31,0.12-0.47,0.13l-0.12-0.27c0.06,0.01,0.13,0.01,0.19,0l1.72-0.66l4.75-1.88l5.44-2.1l4.81-1.89
			c0.28-0.11,0.31-0.18,0.27-0.48c-0.07-0.51-0.13-1.02-0.18-1.53c-0.06-0.51-0.08-1.03-0.15-1.54c0-0.24,0-0.49-0.07-0.72
			c-0.07-0.23-0.08-0.61-0.11-0.91c-0.05-0.5-0.09-1.01-0.14-1.51c-0.05-0.5-0.15-1.02-0.18-1.53c-0.03-0.51-0.11-1.02-0.15-1.54
			c-0.06-0.76-0.17-1.53-0.26-2.29h0.32c0.04,0.67,0.13,1.33,0.2,2c0.05,0.51,0.1,1.03,0.16,1.54c0.06,0.51,0.08,1.03,0.18,1.53
			c0.05,0.29,0.05,0.59,0.08,0.89s0.06,0.61,0.11,0.91c0.05,0.3,0,0.53,0.08,0.79c0.1,0.72,0.13,1.44,0.22,2.16
			c0.08,0.72,0.15,1.22,0.19,1.84c0,0.16,0.08,0.18,0.22,0.13l1.11-0.43l2.27-0.96c0.07-0.03,0.15-0.05,0.23-0.05"/>
		<path id="Fill-21" class="st0" d="M81.23,20.39c0.03-0.15,0.11-0.29,0.23-0.39c0.68-0.84,1.36-1.61,2.03-2.43
			c0.67-0.82,1.22-1.44,1.82-2.17l1.87-2.26l1.51-1.79l1.87-2.26l1.51-1.79l1.83-2.26c0.5-0.6,1.01-1.19,1.51-1.79
			c0.37-0.45,0.73-0.91,1.12-1.34c0.05-0.06,0.1-0.12,0.18-0.12c0.07,0.03,0.13,0.07,0.18,0.13l-0.55,0.65l-1.15,1.37l-1.2,1.52
			l-1.17,1.43l-1.14,1.37l-0.84,1.03l-1.47,1.79l-1.48,1.77l-1.56,1.88l-1.48,1.77l-1.53,1.85c-0.49,0.6-1,1.17-1.48,1.77
			c-0.13,0.16-0.31,0.29-0.35,0.51l-0.19-0.21"/>
		<path id="Fill-23" class="st0" d="M64.55,9.22c0.07,0,0.13,0.03,0.18,0.08l5.32,3.95l5.23,3.9l4.29,3.18
			c0.08,0.06,0.17,0.11,0.27,0.12l-0.24,0.35c-0.05-0.18-0.21-0.25-0.34-0.34l-2.1-1.54l-4.28-3.19l-4.15-3.02
			c-1.08-0.84-2.17-1.6-3.25-2.42c-0.39-0.25-0.76-0.53-1.11-0.84C64.39,9.34,64.46,9.26,64.55,9.22"/>
	</g>
	<path id="Fill-25" class="st0" d="M62.56,27.35c0.02-0.13,0.02-0.27,0-0.4c0-0.25,0-0.25,0.25-0.26h0.68
		c0.09,0.02,0.18,0.02,0.27,0h0.72c0.13,0,0.18,0.04,0.18,0.18c0,0.56,0,1.14,0,1.75c0,0.12,0,0.18-0.17,0.18h-1.78
		c-0.14,0-0.15-0.08-0.15-0.19c0-0.43,0-0.84,0-1.29"/>
	<g>
		<path id="Fill-3" class="st1" d="M102.79,12.48c0-0.07,0-0.13,0-0.2c-0.04-0.45,0.23-0.88,0.65-1.04c0.44-0.15,0.93,0,1.21,0.38
			c0.05,0.07,0.05,0.17,0.14,0.21v0.84c-0.2,0.42-0.66,0.67-1.12,0.6l-0.26-0.08c-0.2-0.12-0.37-0.29-0.5-0.48l-0.11-0.25"/>
		<path id="Fill-27" class="st1" d="M42.07,15.34c-0.03,0.23-0.09,0.46-0.2,0.66c-0.08,0.07-0.14,0.13-0.22,0.19
			c-0.46,0.35-1.11,0.25-1.46-0.2c-0.02-0.02-0.03-0.04-0.04-0.06c-0.33-0.47-0.22-1.11,0.25-1.44c0.02-0.01,0.04-0.03,0.06-0.04
			c0.52-0.28,1.17-0.09,1.46,0.43c0.04,0.07,0.07,0.14,0.09,0.21c0,0.09,0.04,0.19,0.07,0.29"/>
		<g id="Group-31">
			<g>
				<path id="Fill-29" class="st1" d="M96.92,1.93c-0.05-0.06-0.11-0.11-0.18-0.13c-0.07-0.11-0.14-0.23-0.2-0.34
					c-0.22-0.48-0.04-1.05,0.42-1.32c0.49-0.27,1.09-0.12,1.4,0.34c0.29,0.43,0.21,1.01-0.18,1.35C98.05,1.92,97.9,2,97.75,2.05
					h-0.32c-0.18-0.03-0.35-0.08-0.52-0.16"/>
			</g>
		</g>
		<path id="Fill-32" class="st1" d="M79.64,20.8l0.24-0.35c0.4-0.33,0.97-0.35,1.39-0.06l0.19,0.21l0.08,0.12l0.12,0.27
			c0.01,0.13,0.01,0.26,0,0.39c-0.05,0.41-0.35,0.75-0.75,0.84c-0.4,0.13-0.84-0.01-1.1-0.34c-0.16-0.17-0.25-0.39-0.25-0.62
			l0.05-0.34v-0.11"/>
		<path id="Fill-34" class="st1" d="M64.55,9.22c-0.06,0.04-0.11,0.1-0.13,0.18c-0.19,0.16-0.42,0.28-0.66,0.34h-0.24
			c-0.41-0.08-0.74-0.39-0.84-0.8c-0.13-0.55,0.22-1.1,0.77-1.22c0.26-0.06,0.54-0.01,0.76,0.13c0.35,0.23,0.52,0.66,0.43,1.06
			C64.64,9.02,64.58,9.12,64.55,9.22"/>
		<path id="Fill-36" class="st1" d="M100.03,26.56c0.21-0.03,0.42-0.03,0.63,0c0.13,0.07,0.24,0.15,0.35,0.24
			c0.43,0.37,0.48,1.02,0.11,1.45c-0.37,0.43-1.02,0.48-1.45,0.11c-0.06-0.05-0.12-0.12-0.17-0.18c-0.36-0.45-0.28-1.09,0.16-1.45
			c0.02-0.01,0.03-0.02,0.05-0.03c0.1-0.07,0.21-0.12,0.31-0.18"/>
	</g>
</g>
</svg>
