<?xml version="1.0" encoding="utf-8"?>
<!-- Generator: Adobe Illustrator 24.0.1, SVG Export Plug-In . SVG Version: 6.00 Build 0)  -->
<svg version="1.1" id="Layer_1" xmlns="http://www.w3.org/2000/svg" xmlns:xlink="http://www.w3.org/1999/xlink" x="0px" y="0px"
	 viewBox="0 0 453.8 64.6" style="enable-background:new 0 0 453.8 64.6;" xml:space="preserve">
<style type="text/css">
	.st0{fill:#3F72FF;}
	.st1{fill:#9398A0;}
</style>
<g>
	<path class="st0" d="M396.1,0c0.3,0,0.7,0,1,0h37.3c4.6,0,8.8,1.4,12.3,4.3c3.6,2.9,6,6.9,6.7,11.4c0.2,1.3,0.3,2.7,0.3,4
		c0,8.5,0,16.9,0,25.4c0,4.6-1.4,8.8-4.3,12.3c-2.9,3.6-6.9,6-11.4,6.7c-1.3,0.2-2.7,0.3-4,0.3H324.9c-0.4,0-0.7,0-1.1,0
		c-0.4,0-0.7,0-1,0c-100.9,0-201.9,0-302.8,0c-4.8,0-9.1-1.2-12.8-4.2c-3-2.4-5.3-5.7-6.3-9.5C0.3,49,0,47.1,0,45.2
		C0,36.6,0,28,0,19.3c0-4.6,1.4-8.7,4.3-12.2c2.9-3.6,6.9-6,11.4-6.7C17.1,0.1,18.4,0,19.8,0h375.1C395.3,0,395.7,0,396.1,0z
		 M226.7,3.2L226.7,3.2h-80.3c-42.3,0-84.5,0-126.8,0c-3.8,0-7.3,1.1-10.3,3.4c-4,3.2-6,7.4-6.1,12.5c-0.1,8.7-0.1,17.5,0,26.2
		c0,5.5,2.4,9.9,6.9,13.2c2.9,2,6.1,2.8,9.6,2.8c79.5,0,158.9,0,238.4,0h176.1c2.3,0,4.6-0.3,6.7-1.2c6.3-2.9,9.7-7.8,9.8-14.8
		c0.1-8.7,0.1-17.4,0-26.1c0-5.3-2.2-9.6-6.4-12.9c-2.9-2.2-6.3-3.1-10-3.1C365,3.2,295.8,3.2,226.7,3.2z"/>
	<path class="st1" d="M329.4,30.5c-0.5,1.9-0.9,3.5-1.3,5.2c-0.9,3.5-1.8,7-2.6,10.4c0,0.4-0.4,0.7-0.8,0.7c0,0,0,0,0,0
		c-1,0-1.9,0-2.9,0c-0.5,0-0.7-0.2-0.8-0.7c-2-7-4-13.9-6-20.8c-0.2-0.5,0-0.7,0.5-0.7c1.1,0,2.1,0,3.2,0c0.5,0,0.6,0.2,0.7,0.6
		c1.2,4.9,2.4,9.9,3.6,14.8c0,0.3,0.2,0.6,0.4,0.9c0.5-2.2,1.1-4.3,1.6-6.5c0.8-3.1,1.5-6.2,2.3-9.3c0-0.3,0.3-0.6,0.6-0.5
		c0,0,0,0,0,0c1.1,0,2.2,0,3.3,0c0.4,0,0.7,0.2,0.8,0.6c0,0,0,0,0,0c1.2,4.9,2.4,9.8,3.7,14.7c0,0.3,0.2,0.5,0.3,0.7
		c0.4-0.8,0.5-1.6,0.7-2.4c1.1-4.2,2.2-8.3,3.2-12.5c0.2-0.8,0.6-1.2,1.4-1.1c0.7,0.1,1.4,0.1,2.1,0c0.7,0,0.9,0.2,0.7,0.8
		c-0.6,1.9-1.1,3.8-1.6,5.6c-1.3,4.6-2.6,9.1-4,13.7c-0.7,2.4-0.1,2-2.6,2c-2.6,0-2,0.4-2.7-2.1C331.9,40.1,330.7,35.4,329.4,30.5z"
		/>
	<path class="st1" d="M297.6,44.9c0,2.4,0,4.6,0,6.8c0,1,0,2.1,0,3.1c0,0.6-0.2,0.8-0.8,0.8c-0.8,0-1.6,0-2.4,0
		c-0.6,0-0.9-0.2-0.9-0.9c0-1.5,0-3.1,0-4.6c0-8.1,0-16.1,0-24.2c0-1.2,0-1.2,1.2-1.2c0.1,0,0.2,0,0.2,0c0.7,0,1.5-0.2,2.1,0.1
		c0.6,0.4,0.1,1.3,0.3,1.9c0,0.1,0.1,0.1,0.1,0.2c0.3,0,0.4-0.2,0.6-0.4c3.9-4.1,11.3-3.1,13.9,2.7c1.4,3,1.3,6.1,0.9,9.3
		c-0.2,1.7-0.7,3.4-1.6,4.8c-2.8,4.8-10,5.8-13.4,1.8C297.9,45.1,297.8,45,297.6,44.9z M309.1,35.8c0-1.3-0.1-2.6-0.5-3.8
		c-0.6-2.3-2.4-4-4.4-4.2c-2.9-0.3-4.8,0.8-5.8,3.4s-1.1,5.2-0.7,7.8c0.2,1.3,0.7,2.5,1.5,3.4c2.4,2.6,7,2.4,8.9-1.6
		C308.8,39.2,309.2,37.5,309.1,35.8L309.1,35.8z"/>
	<path class="st1" d="M192.7,44.6c0,0.6,0,1,0,1.4c0,0.6-0.2,0.8-0.8,0.7c-0.8,0-1.5,0-2.3,0c-0.5,0-0.7-0.2-0.7-0.8
		c0-1.6,0-3.1,0-4.7c0-7.9,0-15.9,0-23.8c0-1.1,0-1.1,1.1-1.1c0.6,0,1.3,0,1.9,0c0.6,0,0.8,0.2,0.8,0.8c0,2.8,0,5.6,0,8.3
		c0,0.4-0.2,0.9,0.2,1c0.3,0.2,0.5-0.3,0.8-0.5c1.9-1.6,4.1-2.1,6.6-1.9c4.2,0.3,7.3,3.8,7.9,7.7c0.5,3.3,0.5,6.7-0.9,9.8
		c-1.1,2.5-2.8,4.6-5.6,5.4c-3.2,0.9-6.2,0.5-8.6-2.1C193.1,44.9,193,44.9,192.7,44.6z M192.7,35.8c0,1.8,0.2,3.6,1.1,5.3
		c1,2,2.7,2.8,4.8,2.9c2.3,0,4-1,4.8-3.2c1.3-3,1.4-6.3,0.3-9.4c-0.7-2-2-3.4-4.2-3.7c-2.2-0.4-4.4,0.6-5.6,2.5
		C192.8,31.8,192.7,33.7,192.7,35.8L192.7,35.8z"/>
	<path class="st1" d="M408.3,44.7c-0.3-0.1-0.4,0.1-0.5,0.3c-2.6,3.3-8.8,3.7-12.2,0.2c-1.7-1.8-2.8-4.1-3.1-6.5
		c-0.5-3.8,0.1-7.4,2.2-10.7c2.5-3.8,7.5-4.7,11.1-2.9c0.6,0.3,1.2,0.7,1.7,1.2c0.2,0.2,0.3,0.6,0.7,0.4c0.3-0.2,0.1-0.5,0.1-0.8
		c0-2.3,0-4.6,0-6.9c0-0.7,0-1.3,0-2c0-0.4,0.2-0.6,0.6-0.6c0.9,0,1.7,0,2.6,0c0.5,0,0.7,0.2,0.6,0.7c0,0.2,0,0.4,0,0.6
		c0,9.3,0,18.7,0,28c0,1.2,0,1.2-1.2,1.2c-0.6,0-1.1,0-1.7,0c-0.6,0-1-0.2-0.9-0.9C408.4,45.6,408.3,45.1,408.3,44.7z M396.6,35.9
		c-0.1,1.7,0.2,3.4,0.9,4.9c0.9,2.1,2.5,3.1,4.7,3.3c2.4,0.1,4-1,5-3.1c1.4-3.1,1.5-6.2,0.4-9.4c-0.8-2.4-2.8-3.8-5-3.8
		c-2.3,0.1-4.3,1.2-5.3,3.7C396.8,32.9,396.5,34.4,396.6,35.9z"/>
	<path class="st1" d="M106.9,36.3c0,2.5,0,4.5,0,6.5c0,1,0.4,1.3,1.4,1.2c0.9-0.2,1-0.1,1,0.8c0,0.2,0,0.4,0,0.6
		c0,1.8,0.3,1.5-1.7,1.9c-1.3,0.2-2.7,0.1-3.7-1.1c-0.3-0.4-0.6-0.8-0.7-1.3c-0.1-0.5-0.3-0.5-0.6-0.2c-2.1,2.1-5,3.1-7.9,2.9
		c-4.4-0.3-7.1-4.1-6.3-8.1c0.6-2.9,2.5-4.3,5.1-5.1c1.8-0.5,3.6-0.6,5.5-0.8c0.8-0.1,1.6-0.2,2.4-0.3c1.2-0.2,1.9-1.6,1.5-3
		c-0.2-1-0.9-1.7-1.8-2.1c-1.7-0.7-3.6-0.8-5.3-0.2c-1.5,0.5-2.3,1.5-2.5,3c-0.1,0.6-0.3,0.8-0.9,0.8c-0.7,0-1.4,0-2.1,0
		c-0.6,0-0.8-0.2-0.8-0.8c0.1-2.8,1.3-4.8,4-5.8c3.4-1.4,7.2-1.3,10.5,0.3c1.8,0.8,2.7,2.3,2.9,4.3C107,32,106.8,34.4,106.9,36.3z
		 M102.8,37.8c0-0.5,0-0.9,0-1.2c0-0.5,0-0.7-0.7-0.5c-1.4,0.5-2.9,0.8-4.4,0.9c-1.1,0.1-2.1,0.3-3.2,0.7c-1.5,0.6-2.2,1.6-2.1,3.3
		c0,1.4,0.9,2.4,2.3,2.9c2.2,0.6,4.2,0,6-1.2C102.5,41.5,102.9,39.7,102.8,37.8L102.8,37.8z"/>
	<path class="st1" d="M144.5,37c-2.4,0-4.8,0-7.1,0c-0.6,0-0.8,0.2-0.8,0.8c0.1,1,0.3,1.9,0.7,2.8c1.2,2.9,3.6,3.7,6.3,3.3
		c2.2-0.3,3.7-1.7,4.5-3.8c0.1-0.4,0.5-0.6,0.9-0.6c0.8,0,1.5,0,2.3,0c0.9,0,1.1,0.1,0.8,1c-0.9,2.6-2.3,4.8-4.9,5.9
		c-4.7,2.1-10.4,1.2-13.3-3.7c-0.8-1.4-1.3-3-1.5-4.6c-0.3-2.6-0.2-5.1,0.8-7.6c1.4-3.5,3.8-5.8,7.5-6.4c4.6-0.8,9.4,1.3,11,5.8
		c0.7,2.1,0.8,4.3,0.8,6.4c0,0.6-0.4,0.5-0.8,0.5L144.5,37z M142.5,33.8h4.4c1.5,0,1.5,0,1.2-1.5c-0.3-1.5-1-3-2.3-3.7
		c-3.9-2.2-8.4-0.2-9.1,4.6c-0.1,0.4,0,0.7,0.6,0.6C139,33.8,140.7,33.8,142.5,33.8z"/>
	<path class="st1" d="M246.8,37c-2.4,0-4.8,0-7.1,0c-0.6,0-0.8,0.2-0.7,0.8c0.2,1.7,0.6,3.3,1.8,4.7c1.9,2.3,7.8,2.5,9.6-1.8
		c0.3-0.8,0.8-1.1,1.6-1c0.6,0.1,1.2,0,1.8,0c0.9,0,1.1,0.2,0.8,1c-0.6,1.9-1.6,3.5-3.1,4.8c-1.8,1.5-4,2-6.3,2.1
		c-3,0.1-5.4-0.8-7.5-3c-1.7-1.8-2.5-3.9-2.8-6.3c-0.3-2.9-0.2-5.7,1.1-8.4c1.8-3.7,4.8-5.8,9.1-5.8c3.5,0,6.4,1.3,8.4,4.3
		c1,1.5,1.3,3.2,1.5,4.9c0.1,1,0.1,1.9,0.1,2.9c0,0.6-0.2,0.9-0.9,0.9C251.6,37,249.2,37,246.8,37z M244.9,33.8h4.4
		c1.5,0,1.5,0,1.2-1.5c-0.3-1.5-1-3-2.3-3.7c-4-2.2-8.4-0.2-9.1,4.6c-0.1,0.4,0,0.7,0.6,0.6C241.3,33.7,243.1,33.8,244.9,33.8
		L244.9,33.8z"/>
	<path class="st1" d="M223.6,37c-2.4,0-4.8,0-7.2,0c-0.7,0-0.9,0.2-0.8,0.9c0.1,1.5,0.6,3,1.5,4.3c1.9,2.7,7.9,2.8,9.7-1.4
		c0.4-1,1-1.3,1.9-1.2c0.5,0,1.1,0,1.6,0c0.8,0,1,0.2,0.8,1c-0.5,1.9-1.6,3.5-3.1,4.8c-1.8,1.5-4,2.1-6.3,2.2c-3,0.1-5.5-0.8-7.6-3
		c-1.7-1.8-2.5-3.9-2.8-6.4c-0.3-2.8-0.1-5.6,1.1-8.1c2.3-4.7,6.1-6.6,10.9-5.8c3.9,0.6,7.1,3,7.8,7.7c0.2,1.5,0.2,2.9,0.3,4.3
		c0,0.6-0.2,0.7-0.7,0.7C228.4,37,226,37,223.6,37z M221.5,33.8h4.5c1.4,0,1.5,0,1.2-1.4c-0.3-1.6-1-3-2.4-3.8
		c-2.9-1.7-6.6-0.7-8.3,2.2c-0.4,0.8-0.7,1.6-0.8,2.5c0,0.5,0,0.6,0.6,0.6C218,33.7,219.8,33.8,221.5,33.8z"/>
	<path class="st1" d="M381.7,37.1h-7c-1,0-1,0-0.9,1c0.1,1.5,0.6,2.9,1.5,4.1c1.9,2.7,8,2.8,9.7-1.4c0.4-0.9,0.9-1.2,1.8-1.1
		c0.6,0,1.1,0,1.7,0c0.9,0,1,0.2,0.8,1.1c-0.5,1.8-1.6,3.5-3.1,4.7c-1.8,1.5-4,2.1-6.4,2.2c-3,0.1-5.5-0.9-7.5-3
		c-1.7-1.8-2.5-4-2.8-6.4c-0.3-3-0.1-5.9,1.3-8.6c1.9-3.6,4.8-5.6,9-5.5c3.5,0,6.4,1.3,8.3,4.3c0.9,1.4,1.3,3,1.4,4.6
		c0.1,1,0.1,2.1,0.1,3.2c0,0.6-0.2,0.8-0.8,0.8C386.5,37,384.1,37.1,381.7,37.1z M379.6,33.8h4.4c1.5,0,1.5,0,1.2-1.5
		c-0.3-1.5-1-3-2.4-3.8c-4-2.2-8.3-0.1-9,4.6c-0.1,0.5,0,0.7,0.6,0.7C376.2,33.7,377.9,33.8,379.6,33.8L379.6,33.8z"/>
	<path class="st1" d="M70,26.9c1.1-0.9,2-1.9,3.3-2.2c3-0.9,5.9-1,8.6,1.1c1.2,0.9,1.7,2.2,2,3.7c0.2,1.2,0.3,2.4,0.3,3.5
		c0,4.3,0,8.5,0,12.8c0,0.8-0.2,1.1-1,1c-0.7-0.1-1.4-0.1-2.1,0c-0.7,0.1-1-0.2-1-1c0-3.9,0-7.8,0-11.8c0-1.1-0.1-2.1-0.2-3.2
		c-0.2-1.9-1.5-3.1-3.5-3.2c-2.6-0.2-5.8,1.4-6.2,5c-0.3,2.9-0.1,5.9-0.2,8.8c0,1.5,0,3,0,4.5c0,0.5-0.2,0.8-0.7,0.7
		c-0.8,0-1.6,0-2.5,0c-0.7,0-0.8-0.3-0.8-0.9c0-4.6,0-9.3,0-13.9c0-4.8,0-9.7,0-14.5c0-1.1,0-1.1,1-1.1c0.7,0,1.5,0,2.2,0
		c0.6,0,0.8,0.2,0.8,0.8c0,2.9,0,5.9,0,8.8C70,26.3,70,26.6,70,26.9z"/>
	<path class="st1" d="M259,35.7c0-3.4,0-6.7,0-10.1c0-0.8,0.2-1,1-1c0.7,0,1.5,0,2.2,0c0.5,0,0.7,0.2,0.6,0.7c0,0.4,0,0.8,0,1.2
		c0,0.2,0,0.4,0.2,0.5c0.2,0.1,0.3-0.1,0.5-0.3c0.9-0.9,2-1.6,3.2-2.1c2.5-0.8,5-0.8,7.3,0.4c1.8,0.9,2.7,2.6,3,4.6
		c0.2,1.4,0.3,2.8,0.3,4.3c0,4,0,7.9,0,11.9c0,0.7-0.2,1.1-1,1c-0.8,0-1.5,0-2.3,0c-0.6,0-0.9-0.2-0.9-0.9c0-4.4,0-8.7,0-13.1
		c0-0.8-0.1-1.6-0.3-2.4c-0.6-1.8-1.7-2.7-3.6-2.8c-3.3-0.1-5.7,2.4-6,4.9c-0.1,1.3-0.2,2.6-0.2,4c0,3.1,0,6.2,0,9.3
		c0,0.7-0.2,1-0.9,0.9c-0.8,0-1.5,0-2.3,0c-0.7,0-0.9-0.2-0.9-0.9C259,42.5,259,39.1,259,35.7z"/>
	<path class="st1" d="M347.3,35.7c0-3.4,0-6.7,0-10.1c0-0.7,0.1-1,0.9-1c0.8,0,1.5,0,2.3,0c0.5,0,0.7,0.2,0.6,0.7c0,0.4,0,0.8,0,1.2
		c0,0.2,0,0.4,0.1,0.5s0.3-0.1,0.4-0.2c1.1-1.2,2.6-2.1,4.3-2.4c3.6-0.6,7.4,0,8.8,3.6c0.5,1.4,0.7,3,0.7,4.5c0,4.5,0,8.9,0,13.4
		c0,0.7-0.3,0.9-0.9,0.9c-0.7,0-1.5,0-2.2,0c-0.7,0.1-1-0.2-1-1c0-4.3,0-8.7,0-13c0-0.9-0.2-1.8-0.4-2.7c-0.5-1.4-1.8-2.3-3.5-2.4
		c-3.4-0.1-5.7,2.4-6,4.9c-0.1,1-0.2,2.1-0.2,3.1c0,3.4,0,6.8,0,10.2c0,0.7-0.2,0.9-0.9,0.9c-0.7,0-1.4,0-2.1,0c-0.7,0-1-0.2-1-1
		C347.4,42.5,347.3,39.1,347.3,35.7z"/>
	<path class="st1" d="M120.5,41.6c0.5-1.5,1.1-3.1,1.6-4.6c1.3-3.9,2.7-7.8,4-11.7c0.1-0.5,0.5-0.8,1-0.7c1,0,1.9,0,2.9,0
		c0.6,0,0.8,0.1,0.6,0.8c-1.7,4.5-3.4,9-5.1,13.5c-0.9,2.4-1.8,4.7-2.7,7.1c-0.2,0.5-0.5,0.8-1.1,0.8c-1,0-1.9,0-2.9,0
		c-0.4,0-0.7-0.2-0.8-0.6c-2.5-6.8-5-13.7-7.6-20.5c-0.4-1-0.4-1,0.7-1c0.9,0,1.8,0,2.7,0c0.5-0.1,1,0.2,1.1,0.7c0,0,0,0,0,0
		c1.2,3.7,2.4,7.5,3.7,11.2c0.5,1.7,1.1,3.3,1.7,5L120.5,41.6z"/>
	<path class="st1" d="M426.6,39.2c-0.6-0.1-1.5,0.3-1.9-0.2c-0.4-0.7-0.2-1.6-0.1-2.5c0.3-2.6,1.8-4.6,3.6-6.4
		c0.9-0.9,1.8-1.6,2.5-2.6c1.7-2.3,1.3-5.7-0.8-7.1c-3-2-7.4-0.3-8.1,3.2c-0.2,0.6-0.2,1.2-0.2,1.9c0,0.6-0.3,0.7-0.8,0.7
		c-0.8,0-1.7,0-2.5,0c-0.6,0-0.7-0.2-0.7-0.8c0-3.6,2-7.7,6.1-8.8c3.7-1,7.2-0.8,10.2,1.9c2.7,2.5,3.2,7.9,0.7,10.5
		c-1,1.1-2,2.2-3.1,3.2c-1.8,1.7-3,3.6-2.9,6.2c0,0.6-0.2,0.8-0.8,0.8C427.4,39.2,427,39.2,426.6,39.2z"/>
	<path class="st1" d="M172.4,35.8c0,3.4,0,6.7,0,10.1c0,0.7-0.2,1-0.9,0.9c-0.8,0-1.5,0-2.3,0c-0.7,0-0.9-0.2-0.9-0.9
		c0-4.4,0-8.9,0-13.3c0-2.3,0-4.7,0-7c0-0.7,0.2-0.9,0.9-0.9c0.8,0,1.5,0,2.3,0c0.7,0,0.9,0.2,0.9,0.9
		C172.3,29,172.4,32.4,172.4,35.8z"/>
	<g>
		<path class="st0" d="M56.4,37c-1.5,0-3,0-4.5,0c-0.6,0-0.9-0.2-0.8-0.8c0-0.8,0-1.6,0-2.5c0-0.5,0.2-0.8,0.7-0.8
			c3.1,0,6.1,0,9.2,0c0.5,0,0.8,0.2,0.8,0.8c0,0.8,0,1.7,0,2.5c0,0.6-0.2,0.8-0.8,0.8C59.4,37,57.9,37,56.4,37z"/>
		<path class="st0" d="M42.4,37c-1.5,0-3,0-4.4,0c-0.7,0-0.9-0.2-0.9-0.9c0-0.8,0-1.6,0-2.5c0-0.5,0.2-0.7,0.7-0.7
			c3.1,0,6.2,0,9.3,0c0.5,0,0.7,0.2,0.7,0.7c0,0.9,0,1.7,0,2.6c0,0.6-0.2,0.7-0.8,0.7C45.5,37,44,37,42.4,37z"/>
		<path class="st0" d="M21.1,16.5c2,0,2,0,1.9,2c-0.2,3.2-0.4,6.3-0.5,9.5c0,0.6-0.2,0.9-0.9,0.9c-1.9,0-1.9,0-2-2
			c-0.2-3.1-0.3-6.1-0.5-9.2c-0.1-1.2,0-1.2,1.1-1.2L21.1,16.5z"/>
		<path class="st0" d="M33.1,45.7c0,1.2,0.1,2.7-0.6,4.2c-0.6,1.4-1.7,2.5-3.2,3c-0.5,0.2-0.9,0.1-0.9-0.6c0-0.8-0.1-1.5,1-1.9
			c0.9-0.4,1.5-2.3,1.3-3.3c-0.1-0.4-0.3-0.3-0.5-0.3c-1.7-0.1-1.7-0.1-1.7-1.7c0-0.8,0-1.5,0-2.3c0-0.5,0.1-0.8,0.7-0.8
			c1.1,0,2.2,0,3.3,0c0.5,0,0.7,0.2,0.7,0.7C33.1,43.6,33.1,44.5,33.1,45.7z"/>
		<path class="st0" d="M28.5,27.1c0.1-0.6-0.3-1.5,0.1-2c0.5-0.5,1.5-0.1,2.2-0.2c0.6,0,1.2,0,1.7,0c0.4,0,0.6,0.2,0.6,0.6
			c0,1.2,0,2.4,0,3.6c0,0.3-0.1,0.5-0.4,0.6c-0.1,0-0.1,0-0.2,0c-1.2,0-2.3,0-3.5,0c-0.4,0-0.6-0.2-0.6-0.6
			C28.5,28.5,28.5,27.9,28.5,27.1z"/>
	</g>
	<path class="st1" d="M424.5,44.5c0-2.3,0-2.3,2.3-2.3c2.1,0,2.2,0,2.1,2.1c0,0.8,0.4,1.8-0.2,2.3s-1.5,0.2-2.2,0.2c-2,0-2,0-2-2
		L424.5,44.5z"/>
	<path class="st1" d="M172.4,18.8c0,2.2,0,2.2-2.2,2.2c-2.1,0-1.8,0.3-1.9-1.8c0-0.7,0-1.3,0-2c0-0.5,0.2-0.7,0.6-0.7
		c1,0,1.9,0,2.9,0c0.4,0,0.6,0.2,0.6,0.6C172.3,17.7,172.4,18.2,172.4,18.8z"/>
</g>
</svg>
