<?xml version="1.0" encoding="utf-8"?>
<!-- Generator: Adobe Illustrator 24.0.1, SVG Export Plug-In . SVG Version: 6.00 Build 0)  -->
<svg version="1.1" id="Layer_1" xmlns="http://www.w3.org/2000/svg" xmlns:xlink="http://www.w3.org/1999/xlink" x="0px" y="0px"
	 viewBox="0 0 376.9 88.4" style="enable-background:new 0 0 376.9 88.4;" xml:space="preserve">
<style type="text/css">
	.st0{fill:#3F72FF;}
	.st1{fill:#9398A0;}
</style>
<g>
	<path class="st0" d="M122.2,61.8c-9.3,11.8-28.1,12.1-38.5,2.6c-11.4-10.9-12-28.9-1.3-40.5c9.1-9.8,28.7-12.3,39.6,0.8v-7.6h6.7
		v52.6h-6.6V61.8z M112.4,45.4H89.8c-1.5,12.1,3.5,15.2,10,15.4C110.4,61.1,113.6,57.4,112.4,45.4z M99.9,44.5v-2.3
		c-2.5-3-2.5-7.3,0-10.3v-4.6c-5.2-0.2-9.4,2.7-9.9,7.3c-0.2,3.3-0.2,6.6,0,9.9L99.9,44.5z M112.5,44.5c-0.2-2.9-0.2-5.8,0-8.7
		c0.5-4.6-5.2-9.7-10.1-8.3c0,1.5,0,3,0,4.5c2.7,3,2.7,7.5,0,10.5c0.2,0.6-0.2,1.4,0.3,2H112.5z M103.2,37.9c0-1.1,0-1.6,0-2
		c0-1.4-0.6-2.4-2.1-2.3c-1.5,0.1-1.9,1.1-1.8,2.3c0,1.3,0,2.2,0,3.4c0.1,0.9,0.8,1.6,1.8,1.6c0.9,0.1,1.8-0.5,2-1.4
		C103.2,38.9,103.2,38.4,103.2,37.9z"/>
	<path class="st1" d="M61.4,9.6l-24,60.2h-6.4L7.1,9.7L6.7,9.8v60H0V0.1h10.3l24,60.4L58.3,0h10.1v69.8H62V9.7L61.4,9.6z"/>
	<path class="st0" d="M287.2,24.9v-7.9h6.7v52.6h-6.6v-7.8c-7.1,8.1-15.6,10.3-25.3,8.9c-6.7-1-12.7-4.7-16.7-10.3
		c-8.5-11.2-6.7-28.3,3.7-37.9C257.6,14.6,276,11.9,287.2,24.9z M255.9,36.4c-1.2,2.9-1.3,6.1-0.3,9.1c0.4,1,0.2,2.1-0.4,3
		c-1.2,1.1-1.2,2.9-0.1,4.1c0.1,0.1,0.3,0.3,0.4,0.4l-2,2.7c-2.4,0-4.6-0.3-5.3,2.7c1,1.7,2.4,3.2,4.1,4.4c1.3,1.1,2.6,0,3.1-1.6
		c0.2-0.8,0.3-1.7,0.3-2.5l4-4.5c1.2,1.5,0,3.8,1.8,4.7c1.3,0,0.8-1.3,1.3-1.7c0.7,0.6,0.8,1.7,1.9,1.6c1.2-0.6,0.5-2,1.2-3
		c1,1,0,2.8,1.7,3c1.7-0.4,0.2-2.4,1.6-2.9c0.6,0.9-0.3,2.4,1.3,2.9c2.2-1.1,0.4-4,2.5-5.4l4.7,4.7c0,0.8,0,1.6,0,2.4
		c0,1.3,1,2.3,2.3,2.4c2-0.9,3.6-2.3,4.9-4c0.4-1-0.1-2.2-1.1-2.7c-0.5-0.3-1-0.4-1.6-0.5c-0.7,0-1.5,0-2.2,0l-2.7-3h0.8
		c-2.3-5.2-0.4-10.5-1.3-15.7l3.2-3.5h1.9c1.4,0,2.6-0.4,3-1.9c0.3-1.2-0.3-2.4-1.5-2.7c-0.1,0-0.1,0-0.2-0.1
		c-0.4-0.1-0.7-0.4-0.8-0.8c-0.5-1.3-1.4-2-2.8-1.7c-1.3,0.4-2.2,1.6-2,3c0,0.6,0,1.3,0,1.2l-2.9,3.2c-4.7-4.3-11.9-4.5-16.8-0.4
		c-0.9-0.6-1.6-1.4-2.2-2.2c0-0.6,0-1.3,0-1.9c-0.1-1.4-0.6-2.6-2.1-2.9c-1.1-0.3-2.2,0.3-2.5,1.4c0,0.1,0,0.2-0.1,0.3
		c-0.2,0.6-0.6,0.7-1,0.9c-1.2,0.3-1.9,1.5-1.6,2.6c0.3,1.2,1.4,2.1,2.7,2c0.7,0,1.5,0,2.2,0L255.9,36.4z"/>
	<path class="st1" d="M376.8,45.6h-47.2c0.1,8.6,5.8,16.1,14.2,18.4c8.5,2.1,17.8,0.4,24-11h7.4c-4.2,13.2-17.8,20.9-31.2,17.8
		C329.5,68,320,53.4,322.5,38.5c2.5-15,15.5-24.8,31.2-22.8C368.2,17.8,378.4,31,376.8,45.6z M329.8,39.3H369
		c-0.6-9.8-9.2-17.3-19.8-17.4C339.1,21.8,330.7,29.4,329.8,39.3L329.8,39.3z"/>
	<path class="st1" d="M196.5,69.8h-6.6V0h6.7v22.8c6.1-6.4,13.4-7.6,21.3-6.4c7.9,1.2,12.7,5.9,14.7,13.5c1,3.8,1.5,7.6,1.5,11.5
		c0,9.4,0,18.8,0,28.3h-6.5c-0.5-0.7-0.2-1.7-0.2-2.5c0-9,0-18-0.1-27c0-2.6-0.3-5.2-1-7.7c-1.9-7.7-6.4-10.1-14.4-10.1
		c-9.4,0.2-14.9,6.1-15.1,15.4s0,19.3-0.1,28.9C196.5,67.7,196.5,68.6,196.5,69.8z"/>
	<path class="st1" d="M149.9,53.2h7.1c-0.1,3.3,1.2,6.6,3.6,8.9c2.6,2.6,6.5,3.3,9.9,1.9c3.2-1,5.4-3.9,5.6-7.2
		c0.5-3.6-1.3-7-4.5-8.7c-2-1.1-4-2-6.1-2.8c-1.5-0.6-3-1.2-4.5-1.9c-7-3.4-9.8-8.5-8.5-15.6c1.3-6.7,7-11.7,13.9-12.1
		c8.1-0.6,15.8,3.4,16.4,14.4h-7.3c-0.5-0.4-0.3-1-0.5-1.5c-0.7-3.5-3.8-6.1-7.4-6.1c-4.3-0.2-7.9,3.2-8.1,7.5
		c-0.1,2.7,1.2,5.2,3.4,6.7c2.7,1.5,5.5,2.7,8.5,3.4c5.8,1.8,10.4,5,11.7,11.3c2.2,8.5-3,17.1-11.4,19.3c-0.3,0.1-0.6,0.2-1,0.2
		c-10.4,2-19-3.7-20.5-13.7C150.2,55.9,150.1,54.7,149.9,53.2z"/>
	<path class="st1" d="M144.5,69.8h-6.6V0h6.6L144.5,69.8z"/>
	<path class="st1" d="M309.2,69.8h-6.8V17h6.2v5.7c3.5-4.2,7.3-6.7,12.5-6.5v7.1c-0.2,0.1-0.3,0.3-0.5,0.3
		c-8.1,1.2-11.1,4.6-11.2,12.8c-0.2,10.1,0,20.4-0.1,30.6C309.2,67.9,309.2,68.8,309.2,69.8z"/>
	<path class="st0" d="M231.5,88.4l-3.9-4.1l9-8.6l-4-2.9l15.7-4l-4.9,15.6l-2.8-4.3L231.5,88.4z"/>
	<path class="st0" d="M261.2,50.3c-1.8,0-3.4-1.3-3.8-3.1c0.1-1.7,1.4-3,3.1-3c1.9-0.1,3.6,1.2,3.9,3.2
		C264.3,49.1,262.9,50.3,261.2,50.3z"/>
	<path class="st0" d="M271.2,44.2c1.6-0.1,3,1.1,3.2,2.7c0.2,1.6-1.6,3.3-3.4,3.4c-1.8,0.2-3.3-1.1-3.5-2.9
		C267.6,45.5,269.3,44.1,271.2,44.2z"/>
	<path class="st0" d="M267.4,52.4h-2.6c-0.9-1.6,0-2.5,1.1-3.6C267.2,49.4,267.9,51,267.4,52.4z"/>
</g>
</svg>
