<?xml version="1.0" encoding="utf-8"?>
<!-- Generator: Adobe Illustrator 24.0.1, SVG Export Plug-In . SVG Version: 6.00 Build 0)  -->
<svg version="1.1" id="Layer_1" xmlns="http://www.w3.org/2000/svg" xmlns:xlink="http://www.w3.org/1999/xlink" x="0px" y="0px"
	 viewBox="0 0 343.4 102" style="enable-background:new 0 0 343.4 102;" xml:space="preserve">
<style type="text/css">
	.st0{fill:#9398A0;}
	.st1{fill:#3F72FF;}
</style>
<g>
	<g>
		<path class="st0" d="M130,70.6h-4.2V48.3h-7.6v-3.6h19.5v3.6H130V70.6z"/>
		<path class="st0" d="M158.4,70.6h-4.2V58.6c0.1-1.2-0.2-2.4-0.9-3.4c-0.7-0.8-1.8-1.2-2.9-1.1c-1.5-0.1-2.9,0.5-3.9,1.6
			c-0.8,1-1.2,2.8-1.2,5.3v9.7h-4.2V43h4.2v7c0,1.2-0.1,2.4-0.2,3.6h0.3c0.6-1,1.4-1.7,2.4-2.2c1.1-0.5,2.3-0.8,3.5-0.8
			c4.8,0,7.1,2.4,7.1,7.2L158.4,70.6z"/>
		<path class="st0" d="M174.2,50.6c0.7,0,1.4,0,2.1,0.2l-0.4,3.9c-0.6-0.1-1.2-0.2-1.8-0.2c-1.5-0.1-3,0.5-4.1,1.6
			c-1.1,1.2-1.6,2.7-1.6,4.2v10.3h-4.2V51h3.3l0.5,3.5h0.2c0.6-1.1,1.5-2.1,2.5-2.8C171.8,51,173,50.6,174.2,50.6z"/>
		<path class="st0" d="M188.4,71c-2.7,0.2-5.2-0.8-7.2-2.7c-1.8-2-2.7-4.7-2.6-7.4c-0.2-2.7,0.7-5.4,2.4-7.6
			c1.7-1.9,4.1-2.9,6.6-2.7c2.3-0.1,4.5,0.7,6.1,2.4c1.6,1.8,2.4,4.1,2.2,6.5v2.2H183c-0.1,1.6,0.5,3.2,1.5,4.4
			c1.1,1.1,2.6,1.6,4.1,1.5c1.1,0,2.2-0.1,3.2-0.3c1.1-0.3,2.2-0.6,3.2-1.1v3.4c-1,0.5-2,0.8-3.1,1C190.8,70.8,189.6,71,188.4,71z
			 M187.7,53.8c-1.2-0.1-2.4,0.4-3.2,1.3c-0.9,1-1.4,2.3-1.4,3.7h8.9c0.1-1.3-0.3-2.6-1.1-3.7C190.1,54.2,188.9,53.7,187.7,53.8z"/>
		<path class="st0" d="M213.1,70.6l-0.8-2.7h-0.1c-0.7,1-1.7,1.9-2.9,2.4c-1.2,0.5-2.4,0.7-3.7,0.6c-1.6,0.1-3.2-0.5-4.5-1.6
			c-1.2-1.2-1.7-2.8-1.6-4.5c-0.1-1.8,0.7-3.5,2.2-4.6c2.1-1.2,4.5-1.8,6.9-1.7l3.4-0.1v-1.1c0.1-1-0.2-2-0.9-2.8
			c-0.7-0.7-1.7-1-2.7-0.9c-1,0-2,0.1-2.9,0.4c-0.9,0.3-1.8,0.6-2.7,1.1l-1.4-3c1.1-0.6,2.3-1,3.5-1.3c1.2-0.3,2.4-0.4,3.6-0.4
			c2-0.1,4,0.4,5.7,1.6c1.4,1.3,2.1,3.2,1.9,5.1v13.3H213.1z M206.9,67.7c1.3,0.1,2.6-0.4,3.6-1.3c1-0.9,1.5-2.2,1.4-3.6v-1.7
			l-2.5,0.1c-1.5,0-3,0.3-4.3,1c-0.9,0.6-1.4,1.6-1.3,2.7c0,0.8,0.2,1.5,0.8,2C205.2,67.6,206,67.8,206.9,67.7z"/>
		<path class="st0" d="M229.2,67.6c1,0,2.1-0.2,3.1-0.5v3.1c-0.6,0.2-1.2,0.4-1.8,0.5c-0.7,0.1-1.5,0.2-2.2,0.2
			c-3.9,0-5.9-2.1-5.9-6.2V54.2h-2.7v-1.8l2.9-1.5l1.4-4.1h2.6V51h5.6v3.2h-5.6v10.5c-0.1,0.8,0.2,1.6,0.7,2.2
			C227.8,67.4,228.5,67.6,229.2,67.6z"/>
		<path class="st0" d="M247.6,47.9c-2.2-0.1-4.4,0.9-5.7,2.6c-1.5,2.1-2.2,4.6-2.1,7.2c0,3.2,0.7,5.6,2,7.2c1.5,1.7,3.6,2.6,5.8,2.4
			c1.1,0,2.1-0.1,3.2-0.3c1-0.2,2.1-0.5,3.2-0.8v3.6c-2.2,0.8-4.6,1.2-6.9,1.1c-3.8,0-6.7-1.2-8.7-3.5c-2-2.3-3.1-5.6-3.1-9.8
			c0-2.5,0.5-4.9,1.5-7.1c0.9-2,2.4-3.6,4.3-4.7c2-1.1,4.3-1.7,6.6-1.7c2.5,0,5.1,0.5,7.3,1.7l-1.5,3.5c-0.9-0.4-1.8-0.8-2.8-1.1
			C249.7,48.1,248.7,47.9,247.6,47.9z"/>
		<path class="st0" d="M269.2,50.6c0.7,0,1.4,0,2.1,0.2l-0.4,3.9c-0.6-0.1-1.2-0.2-1.8-0.2c-1.5-0.1-3,0.5-4.1,1.6
			c-1.1,1.2-1.6,2.7-1.6,4.2v10.3h-4.1V51h3.3l0.5,3.5h0.2c0.6-1.1,1.5-2.1,2.5-2.8C266.8,51,268,50.6,269.2,50.6z"/>
		<path class="st0" d="M292.3,60.8c0.2,2.7-0.7,5.4-2.5,7.5c-1.8,1.9-4.3,2.8-6.9,2.7c-1.7,0-3.4-0.4-4.9-1.2
			c-1.4-0.8-2.5-2.1-3.2-3.6c-0.8-1.7-1.2-3.5-1.1-5.4c-0.2-2.7,0.7-5.4,2.4-7.5c1.8-1.8,4.3-2.8,6.9-2.7c2.5-0.1,5,0.9,6.7,2.7
			C291.5,55.4,292.4,58.1,292.3,60.8z M278,60.8c0,4.5,1.7,6.8,5,6.8s5-2.3,5-6.8c0-4.5-1.7-6.7-5-6.7c-1.5-0.1-2.9,0.5-3.8,1.7
			C278.3,57.3,277.9,59,278,60.8L278,60.8z"/>
		<path class="st0" d="M313.2,70.6l-2.5-9.2c-0.3-1-0.9-3.2-1.7-6.7h-0.2c-0.7,3.2-1.2,5.5-1.6,6.8l-2.6,9.1H300L294.4,51h4.3
			l2.5,9.7c0.6,2.4,1,4.4,1.2,6.1h0.1c0.1-0.9,0.3-1.9,0.5-3c0.2-1.1,0.4-2,0.6-2.5l3-10.3h4.6l2.9,10.3c0.2,0.6,0.4,1.5,0.7,2.7
			c0.2,0.9,0.4,1.8,0.5,2.8h0.1c0.3-2.1,0.7-4.1,1.2-6.1l2.5-9.7h4.2l-5.6,19.6L313.2,70.6z"/>
		<path class="st0" d="M333.4,71c-2.2,0.1-4.4-0.9-5.7-2.7c-1.5-2.2-2.2-4.8-2.1-7.5c-0.2-2.7,0.6-5.3,2.1-7.5
			c1.4-1.8,3.5-2.8,5.8-2.7c2.3-0.1,4.6,1,5.9,2.9h0.2c-0.2-1.1-0.3-2.2-0.3-3.4V43h4.2v27.6h-3.3l-0.7-2.6h-0.2
			C337.9,70,335.7,71.1,333.4,71z M334.5,67.6c1.4,0.1,2.8-0.4,3.7-1.4c0.9-1.4,1.3-3,1.2-4.7v-0.6c0-2.5-0.4-4.2-1.2-5.3
			c-0.9-1.1-2.3-1.7-3.8-1.6c-1.4,0-2.6,0.6-3.4,1.8c-0.9,1.5-1.3,3.3-1.2,5.1c-0.1,1.7,0.3,3.5,1.1,5
			C331.8,67,333.1,67.7,334.5,67.6L334.5,67.6z"/>
	</g>
	<circle class="st1" cx="77.4" cy="77" r="19"/>
	<path class="st1" d="M77.4,52.1c-6.4,0-12.5,2.5-17.1,6.9L35.4,34.2C43,25.9,42.5,13,34.2,5.4S13-1.7,5.4,6.6s-7.1,21.2,1.2,28.8
		c7,6.5,17.6,7.2,25.5,1.7l25.2,25.2c-8.1,11.1-5.7,26.7,5.4,34.8s26.7,5.7,34.8-5.4s5.7-26.7-5.4-34.8
		C87.8,53.8,82.6,52.1,77.4,52.1L77.4,52.1z M4.3,20.1C4.3,11.2,11.5,4,20.4,4c8.9,0,16.1,7.2,16.1,16.1c0,8.9-7.2,16.1-16.1,16.1
		c0,0,0,0,0,0C11.6,36.2,4.4,29,4.3,20.1z M77.4,97.5C66,97.5,56.9,88.4,56.9,77S66,56.6,77.4,56.6S97.8,65.7,97.8,77
		C97.8,88.4,88.7,97.5,77.4,97.5z"/>
</g>
</svg>
