<?xml version="1.0" encoding="utf-8"?>
<!-- Generator: Adobe Illustrator 24.0.2, SVG Export Plug-In . SVG Version: 6.00 Build 0)  -->
<svg version="1.1" id="Layer_1" xmlns="http://www.w3.org/2000/svg" xmlns:xlink="http://www.w3.org/1999/xlink" x="0px" y="0px"
	 viewBox="0 0 100 100" style="enable-background:new 0 0 100 100;" xml:space="preserve">
<style type="text/css">
	.st0{fill:none;stroke:#9398A0;stroke-width:5.0224;stroke-miterlimit:10;}
	.st1{fill:#315FC6;}
	.st2{opacity:0.28;}
</style>
<g>
	<circle class="st0" cx="50" cy="50" r="45.5"/>
	<path class="st0" d="M56.2,41.3c0,8.4-6.8,15.2-15.2,15.2c-8.4,0-15.2-6.8-15.2-15.2c0-8.4,6.8-15.2,15.2-15.2
		C49.4,26.1,56.2,32.9,56.2,41.3z"/>
	<circle class="st1" cx="38.7" cy="35.9" r="4"/>
	<g>
		<g class="st2">
			<path d="M77.1,74l-17-17c1.7-3.1,2.7-6.8,2.7-10.6C62.7,34,52.7,24,40.4,24c-12.3,0-22.3,10-22.3,22.3s10,22.3,22.3,22.3
				c4.8,0,9.3-1.5,13-4.1l16.6,16.6c1,1,2.3,1.5,3.6,1.5c1.3,0,2.6-0.5,3.6-1.5C79,79.1,79,75.9,77.1,74z M40.4,61.5
				c-8.4,0-15.2-6.8-15.2-15.2S32,31.2,40.4,31.2c8.4,0,15.2,6.8,15.2,15.2S48.8,61.5,40.4,61.5z"/>
		</g>
		<g>
			<g>
				<path class="st1" d="M77.7,68.9l-17-17c1.7-3.1,2.7-6.8,2.7-10.6C63.4,29,53.4,19,41.1,19c-12.3,0-22.3,10-22.3,22.3
					s10,22.3,22.3,22.3c4.8,0,9.3-1.5,13-4.1l16.6,16.6c1,1,2.3,1.5,3.6,1.5c1.3,0,2.6-0.5,3.6-1.5C79.7,74.1,79.7,70.9,77.7,68.9z
					 M41.1,56.5c-8.4,0-15.2-6.8-15.2-15.2s6.8-15.2,15.2-15.2c8.4,0,15.2,6.8,15.2,15.2S49.4,56.5,41.1,56.5z"/>
			</g>
		</g>
	</g>
</g>
</svg>
